<?xml version="1.0" standalone="no"?>
<!DOCTYPE svg PUBLIC "-//W3C//DTD SVG 1.1//EN" "http://www.w3.org/Graphics/SVG/1.1/DTD/svg11.dtd" >
<svg xmlns="http://www.w3.org/2000/svg" xmlns:xlink="http://www.w3.org/1999/xlink" version="1.1">
<metadata>
Created by FontForge 20170731 at Sun Oct 29 07:29:09 2006
 By ,,,
UPC-Cordia  UPC Unity Progress Co.Ltd., 1986. All rights reserved.
</metadata>
<defs>
<font id="UPC-Cordia-Bold" horiz-adv-x="1495" >
  <font-face 
    font-family="UPC-Cordia"
    font-weight="700"
    font-stretch="normal"
    units-per-em="4096"
    panose-1="2 11 3 0 2 2 2 2 2 4"
    ascent="3276"
    descent="-820"
    x-height="1393"
    cap-height="1921"
    bbox="-2241 -1495 3240 3412"
    underline-thickness="102"
    underline-position="-358"
    unicode-range="U+0020-FB02"
  />
<missing-glyph horiz-adv-x="1389" 
d="M0 1913h1389v-1913h-1389v1913zM1073 209q-49 74 -96 141.5t-92 135t-92.5 137t-96.5 147.5q-53 -74 -98 -141.5t-88 -135t-88 -137t-98 -147.5h749zM1069 1704h-745l36 -57q41 -66 82 -125.5t80 -121t80 -122.5t90 -131zM209 414q90 135 176 268t184 276
q-53 78 -96 141.5t-84 127t-84 127t-96 145.5v-1085zM1176 418v1073q-46 -70 -89 -135.5t-88 -129t-88 -131t-92 -137.5z" />
    <glyph glyph-name="uni0E4F.liga" unicode="&#xe4f;&#x22;" horiz-adv-x="2060" 
d="M696 2187v312h271v-312l-62 -368h-143zM1130 2187v312h271v-312l-66 -368h-139zM1844 782q0 187 -57.5 338t-164 257.5t-257.5 164.5t-338 58q-184 0 -334 -59t-256.5 -166t-164.5 -258t-58 -335q0 -180 59 -330.5t166 -258.5t256.5 -168t331.5 -60q181 0 331.5 60
t258.5 168t167.5 258.5t59.5 330.5zM1621 782q0 -138 -45.5 -255t-125 -201.5t-188.5 -132.5t-235 -48h-2q-122 0 -228.5 46.5t-186 130.5t-125 201t-45.5 259q0 144 38 260.5t112 199t183.5 127.5t253.5 45q142 0 252.5 -46t186.5 -129.5t115.5 -200t39.5 -256.5zM1448 782
q0 98 -29 184t-83 150t-131.5 101t-174.5 37h-3q-95 0 -171.5 -38t-130.5 -102.5t-83 -150t-29 -181.5q0 -93 30 -179t84 -151.5t130.5 -104.5t169.5 -39q94 0 171.5 39t133 104.5t86 151.5t30.5 179zM1252 782q0 -56 -13.5 -109t-40.5 -94.5t-67.5 -66.5t-94.5 -26h-6
q-61 0 -102 25.5t-66 67t-35.5 95t-10.5 108.5q0 58 17.5 109.5t47 90.5t67.5 61.5t79 22.5q54 0 95.5 -22t70.5 -60.5t44 -90t15 -111.5z" />
    <glyph glyph-name="uni0E24.liga" unicode="&#xe24;&#xe32;" horiz-adv-x="2462" 
d="M483 1167q-131 103 -348 144q53 90 254 217q205 123 492 123q368 0 540 -160q13 12 25 24.5t29 24.5q45 29 75.5 51.5t65.5 34.5t76 18.5t98 6.5q156 0 254 -37t155.5 -108.5t80 -178t22.5 -246.5v-1679h-270v1667q0 90 -6.5 157.5t-29 115t-69.5 72t-133 24.5
q-37 0 -59.5 -2t-34.5 -12.5t-26.5 -22.5t-39.5 -33q-37 -29 -53 -67.5t-25 -83.5q5 -25 7 -53.5t2 -57.5v-1696h-271v1712q0 308 -397 308q-205 0 -315 -87q147 -49 258 -163q-119 -41 -197 -148q-78 -106 -78 -221v-221q160 0 234 -33q78 -33 119 -102q40 -74 40 -164
q0 -115 -77 -209q-74 -98 -242 -98q-143 0 -246 82q-98 81 -98 266v504q0 237 188 331zM639 184q111 0 111 115q0 111 -111 111t-111 -111q0 -115 111 -115z" />
    <glyph glyph-name="uni0E26.liga" unicode="&#xe26;&#xe32;" horiz-adv-x="2650" 
d="M1749 1171q4 -32 4 -65v-1696h-270v1712q0 308 -398 308q-204 0 -315 -87q148 -49 258 -163q-242 -78 -242 -369v-496q0 -184 -102 -266t-242 -82q-147 0 -233 86q-86 90 -86 221q0 119 74 209q77 90 319 90v263q0 262 156 331q-127 99 -348 144q65 110 270 225t475 115
q365 0 537 -156q28 37 69 66q45 28 76 50.5t63.5 35t73.5 18.5t103 6q151 0 251.5 -37t158 -110.5t78 -180t20.5 -241.5v-1684h-271v1635q0 57 2 110.5t-2 100.5t-14 86t-30.5 65.5t-57.5 40.5t-94 14q-41 0 -65.5 -6t-43 -16t-35 -24.5t-41.5 -34.5q-98 -78 -98 -218z
M442 168q111 0 111 115q0 110 -111 110q-110 0 -110 -110q0 -115 110 -115z" />
    <glyph glyph-name="fi" unicode="fi" horiz-adv-x="1090" 
d="M741 1208h-274v-1208h-234v1208h-208v185h208v147q0 123 25 209t115 147q94 58 245 58q99 0 222 -25l-37 -205q-37 9 -72 11t-67 2q-111 0 -152 -45q-45 -45 -45 -172v-127h274v4h234v-1393h-234v1204z" />
    <glyph glyph-name="fl" unicode="fl" horiz-adv-x="1130" 
d="M745 1208h-278v-1208h-234v1208h-208v185h208v147q0 123 25 209t115 147q94 58 245 58h49.5t59.5 -4t61.5 -6t55.5 -7h139v-1937h-238v1208zM467 1393h278v344h-22h-23q-24 0 -55 -2t-57.5 -8.5t-47 -14.5t-28.5 -20q-45 -45 -45 -172v-127z" />
    <glyph glyph-name=".notdef" horiz-adv-x="1389" 
d="M0 1913h1389v-1913h-1389v1913zM1073 209q-49 74 -96 141.5t-92 135t-92.5 137t-96.5 147.5q-53 -74 -98 -141.5t-88 -135t-88 -137t-98 -147.5h749zM1069 1704h-745l36 -57q41 -66 82 -125.5t80 -121t80 -122.5t90 -131zM209 414q90 135 176 268t184 276
q-53 78 -96 141.5t-84 127t-84 127t-96 145.5v-1085zM1176 418v1073q-46 -70 -89 -135.5t-88 -129t-88 -131t-92 -137.5z" />
    <glyph glyph-name=".null" horiz-adv-x="0" 
 />
    <glyph glyph-name="nonmarkingreturn" horiz-adv-x="745" 
 />
    <glyph glyph-name="space" unicode=" " horiz-adv-x="918" 
 />
    <glyph glyph-name="exclam" unicode="!" horiz-adv-x="745" 
d="M303 475l-74 1020v426h295v-426l-69 -1020h-152zM242 0v270h270v-270h-270z" />
    <glyph glyph-name="quotedbl" unicode="&#x22;" horiz-adv-x="954" 
d="M188 1241l-65 365v315h270v-315l-61 -365h-144zM623 1241l-66 365v315h270v-315l-61 -365h-143z" />
    <glyph glyph-name="numbersign" unicode="#" 
d="M135 -33l115 557h-221v197h258l98 475h-356v197h397l115 561h192l-110 -561h409l115 561h201l-115 -561h225v-197h-266l-98 -475h364v-197h-401l-115 -557h-197l111 557h-410l-114 -557h-197zM483 721h414l98 475h-413z" />
    <glyph glyph-name="dollar" unicode="$" 
d="M668 -274v233q-537 70 -574 573l238 46q49 -377 336 -418v749q-533 119 -533 541q0 213 131 362.5t402 174.5v110h139v-110q446 -41 512 -476l-242 -36q-41 266 -270 311v-680q561 -111 561 -561q0 -279 -172 -426.5t-389 -155.5v-237h-139zM668 1790
q-119 -21 -207 -100.5t-88 -223.5q0 -241 295 -331v655zM807 160q143 16 229 120.5t86 251.5q0 123 -61.5 203t-253.5 142v-717z" />
    <glyph glyph-name="percent" unicode="%" horiz-adv-x="2388" 
d="M156 1458q0 201 100 348.5t305 147.5q209 0 313.5 -147.5t104.5 -360.5q0 -229 -112.5 -368.5t-305.5 -139.5q-205 0 -305 149.5t-100 370.5zM565 1790q-205 0 -205 -352q0 -336 205 -336t205 352q0 336 -205 336zM565 -70l1053 2024h192l-1048 -2024h-197zM1397 451
q0 225 110.5 360t294.5 135q213 0 315.5 -149.5t102.5 -362.5q0 -196 -100.5 -350t-317.5 -154q-205 0 -305 149.5t-100 371.5zM1810 782q-204 0 -204 -356q0 -336 200 -336q209 0 209 356q0 336 -205 336z" />
    <glyph glyph-name="ampersand" unicode="&#x26;" horiz-adv-x="1790" 
d="M1274 225q-234 -258 -549 -258q-279 0 -444.5 170t-165.5 391q0 357 458 574q-217 250 -217 422q0 184 139.5 307t335.5 123q193 0 322 -117t129 -293q0 -274 -364 -467l344 -438q61 115 94 266l241 -53q-61 -254 -167 -414q131 -176 299 -295l-160 -188
q-144 90 -295 270zM795 1229q245 143 245 307q0 86 -55 155.5t-162 69.5q-98 0 -161.5 -61.5t-63.5 -151.5t94 -196zM1126 414l-434 536q-323 -196 -323 -405q0 -148 106.5 -258.5t249.5 -110.5q250 0 401 238z" />
    <glyph glyph-name="quotesingle" unicode="'" horiz-adv-x="512" 
d="M176 1241l-57 361v319h266v-319l-61 -361h-148z" />
    <glyph glyph-name="parenleft" unicode="(" horiz-adv-x="893" 
d="M623 -430q-467 586 -467 1257q0 639 467 1262h168q-259 -434 -326.5 -721t-67.5 -541q0 -630 394 -1257h-168z" />
    <glyph glyph-name="parenright" unicode=")" horiz-adv-x="893" 
d="M336 -430h-172q393 627 393 1257q0 631 -393 1262h172q463 -623 463 -1262q0 -667 -463 -1257z" />
    <glyph glyph-name="asterisk" unicode="*" horiz-adv-x="1044" 
d="M86 1569l57 184q209 -74 303 -127q-24 238 -24 328h188q-4 -131 -28 -324q135 66 307 123l61 -184q-168 -58 -327 -74q82 -70 225 -250l-156 -110q-78 106 -180 282q-98 -184 -172 -282l-152 110q152 189 218 250q-168 33 -320 74z" />
    <glyph glyph-name="plus" unicode="+" horiz-adv-x="1569" 
d="M672 311v525h-525v221h525v524h225v-524h520v-221h-520v-525h-225z" />
    <glyph glyph-name="comma" unicode="," horiz-adv-x="745" 
d="M238 0v270h270v-270q0 -283 -221 -381l-66 102q144 62 152 279h-135z" />
    <glyph glyph-name="hyphen" unicode="-" horiz-adv-x="893" 
d="M86 705v237h725v-237h-725z" />
    <glyph glyph-name="period" unicode="." horiz-adv-x="745" 
d="M246 0v270h266v-270h-266z" />
    <glyph glyph-name="slash" unicode="/" horiz-adv-x="745" 
d="M0 -33l557 1987h188l-557 -1987h-188z" />
    <glyph glyph-name="zero" unicode="0" 
d="M111 946q0 983 626 983q627 0 627 -983q0 -979 -627 -979q-626 0 -626 979zM352 946q0 -786 385 -786t385 786q0 787 -389 787q-184 0 -282.5 -180.5t-98.5 -606.5z" />
    <glyph glyph-name="one" unicode="1" 
d="M999 0h-233v1503q-193 -180 -475 -282v225q414 196 557 483h151v-1929z" />
    <glyph glyph-name="two" unicode="2" 
d="M1348 225v-225h-1270q0 307 491 709q340 278 438.5 427.5t98.5 264.5q0 164 -112.5 248t-252.5 84q-192 0 -282 -115t-94 -270l-242 24q53 557 627 557q262 0 430 -147.5t168 -384.5q0 -144 -84 -303.5t-486 -495.5l-200 -172q-103 -86 -172 -201h942z" />
    <glyph glyph-name="three" unicode="3" 
d="M115 508l233 33q78 -381 377 -381q168 0 280.5 116.5t112.5 284.5q0 164 -104.5 270.5t-268.5 106.5q-69 0 -167 -29l24 205q135 0 219 26.5t147.5 102.5t63.5 191q0 135 -88 219t-223 84q-295 0 -348 -348l-238 41q45 237 196.5 368t381.5 131q270 0 417.5 -153.5
t147.5 -345.5q0 -267 -266 -390q360 -82 360 -475q0 -286 -202.5 -442t-444.5 -156q-250 0 -420 147.5t-190 393.5z" />
    <glyph glyph-name="four" unicode="4" 
d="M868 0v459h-835v217l876 1245h193v-1245h262v-217h-262v-459h-234zM868 676v864l-602 -864h602z" />
    <glyph glyph-name="five" unicode="5" 
d="M111 504l249 20q54 -364 369 -364q197 0 301.5 143t104.5 328q0 196 -111 315t-299 119q-233 0 -348 -184l-225 28l188 987h954v-229h-766l-102 -516q172 123 360 123q263 0 430.5 -176t167.5 -447q0 -188 -81.5 -346t-227 -248t-346.5 -90q-262 0 -428 145.5t-190 391.5
z" />
    <glyph glyph-name="six" unicode="6" 
d="M1335 1450l-233 -16q-62 303 -328 303q-192 0 -313 -190.5t-125 -555.5q168 254 467 254q274 0 419.5 -192.5t145.5 -429.5q0 -308 -176 -482t-422 -174q-668 0 -668 930q0 1032 689 1032q225 0 370.5 -127t173.5 -352zM373 623q0 -217 116.5 -340t276.5 -123
q176 0 268 137t92 313q0 189 -100 307.5t-272 118.5q-164 0 -272.5 -116.5t-108.5 -296.5z" />
    <glyph glyph-name="seven" unicode="7" 
d="M127 1667v229h1245v-184q-307 -323 -505.5 -794.5t-227.5 -917.5h-242q9 451 209.5 909.5t462.5 757.5h-942z" />
    <glyph glyph-name="eight" unicode="8" 
d="M475 1040q-291 107 -291 394q0 221 156 358t397 137q213 0 385 -129t172 -375q0 -278 -282 -385q364 -114 364 -491q0 -258 -178 -420t-457 -162q-188 0 -331.5 76t-221 207t-77.5 307q0 389 364 483zM426 1442q0 -139 88 -225.5t227 -86.5q119 0 215.5 76t96.5 224
q0 147 -98.5 227t-213.5 80q-135 0 -225 -86t-90 -209zM352 553q0 -188 119 -290.5t274 -102.5q148 0 269 96t121 289q0 172 -113 282.5t-285 110.5q-143 0 -264 -96.5t-121 -288.5z" />
    <glyph glyph-name="nine" unicode="9" 
d="M147 442l226 25q53 -307 319 -307q201 0 324 176t123 569q-160 -254 -459 -254q-279 0 -424 192.5t-145 438.5q0 287 167.5 467t438.5 180q659 0 659 -930q0 -528 -184 -780t-504 -252q-229 0 -370.5 125t-170.5 350zM1110 1290q0 193 -100.5 318t-264.5 125
q-172 0 -282.5 -135.5t-110.5 -323.5q0 -180 108.5 -297t276.5 -117q172 0 272.5 119t100.5 311z" />
    <glyph glyph-name="colon" unicode=":" horiz-adv-x="745" 
d="M242 1122v271h270v-271h-270zM242 0v270h270v-270h-270z" />
    <glyph glyph-name="semicolon" unicode=";" horiz-adv-x="745" 
d="M238 1122v271h270v-271h-270zM238 0v270h270v-270q0 -283 -221 -381l-66 102q144 62 152 279h-135z" />
    <glyph glyph-name="less" unicode="&#x3c;" horiz-adv-x="1569" 
d="M147 840v221l1270 536v-233l-1007 -414l1007 -418v-237z" />
    <glyph glyph-name="equal" unicode="=" horiz-adv-x="1569" 
d="M1417 1130h-1270v222h1270v-222zM1417 545h-1270v221h1270v-221z" />
    <glyph glyph-name="greater" unicode="&#x3e;" horiz-adv-x="1569" 
d="M1417 840l-1270 -545v237l1008 418l-1008 414v233l1270 -536v-221z" />
    <glyph glyph-name="question" unicode="?" 
d="M618 471q0 180 25 274.5t107 192.5q131 111 327 336q37 65 37 139q0 143 -108.5 245.5t-260.5 102.5q-323 0 -385 -389l-241 29q65 553 622 553q234 0 426.5 -133t192.5 -391q0 -234 -291 -492q-143 -123 -182 -201t-43 -266h-226zM602 0v270h270v-270h-270z" />
    <glyph glyph-name="at" unicode="@" horiz-adv-x="2724" 
d="M1520 213q-189 -217 -402 -217q-217 0 -346 176t-129 414q0 323 209 579t471 256q250 0 397 -241l45 200h234l-189 -876q-36 -180 -36 -205q0 -86 90 -86q114 0 308.5 190.5t194.5 534.5q0 385 -280.5 606t-652.5 221q-488 0 -791 -323.5t-303 -806.5q0 -516 317.5 -762
t808.5 -246q648 0 922 398h238q-115 -246 -416 -418t-740 -172q-630 0 -978.5 319.5t-348.5 859.5q0 365 172 690.5t453 489.5t678 164q528 0 823 -307.5t295 -716.5q0 -369 -248 -653.5t-542 -284.5q-111 0 -176.5 45t-77.5 172zM889 569q0 -155 75.5 -268t202.5 -113
q103 0 211.5 80t188.5 229.5t80 354.5q0 164 -84 268.5t-220 104.5q-192 0 -323 -209t-131 -447z" />
    <glyph glyph-name="A" unicode="A" horiz-adv-x="1790" 
d="M-4 0l737 1921h275l786 -1921h-291l-221 582h-807l-209 -582h-270zM549 791h651l-201 532q-90 242 -135 397q-37 -192 -102 -368z" />
    <glyph glyph-name="B" unicode="B" horiz-adv-x="1790" 
d="M197 0v1921h721q323 0 478.5 -143.5t155.5 -347.5q0 -275 -266 -406q361 -106 361 -467q0 -557 -717 -557h-733zM451 1114h413q221 0 330 59.5t109 227.5q0 123 -68 209t-399 86h-385v-582zM451 225h479q229 0 341.5 80t112.5 252q0 156 -100 244t-387 88h-446v-664z" />
    <glyph glyph-name="C" unicode="C" horiz-adv-x="1937" 
d="M1577 676l254 -66q-164 -643 -795 -643q-467 0 -684 293t-217 715q0 487 264.5 733t640.5 246q598 0 758 -561l-250 -58q-127 402 -512 402q-344 0 -491.5 -217t-147.5 -545q0 -418 176.5 -604.5t442.5 -186.5q454 0 561 492z" />
    <glyph glyph-name="D" unicode="D" horiz-adv-x="1937" 
d="M209 0v1921h659q295 0 479.5 -73.5t315.5 -299t131 -577.5q0 -439 -207 -705t-686 -266h-692zM463 225h409q238 0 373 67.5t211 242t76 440.5t-78 434t-213 227.5t-377 59.5h-401v-1471z" />
    <glyph glyph-name="E" unicode="E" horiz-adv-x="1790" 
d="M213 0v1921h1389v-225h-1135v-590h1061v-225h-1061v-656h1180v-225h-1434z" />
    <glyph glyph-name="F" unicode="F" horiz-adv-x="1638" 
d="M221 0v1921h1295v-225h-1041v-598h901v-226h-901v-872h-254z" />
    <glyph glyph-name="G" unicode="G" horiz-adv-x="2089" 
d="M1106 754v225h815v-713q-377 -299 -799 -299q-442 0 -710.5 268.5t-268.5 714.5q0 422 240 713t723 291q643 0 786 -570l-229 -61q-123 414 -557 414q-336 0 -518 -205t-182 -565q0 -406 202.5 -588t501.5 -182q336 0 561 200v357h-565z" />
    <glyph glyph-name="H" unicode="H" horiz-adv-x="1937" 
d="M213 0v1921h258v-791h995v791h254v-1921h-254v905h-995v-905h-258z" />
    <glyph glyph-name="I" unicode="I" horiz-adv-x="745" 
d="M250 0v1921h254v-1921h-254z" />
    <glyph glyph-name="J" unicode="J" horiz-adv-x="1343" 
d="M74 545l229 33q16 -385 283 -385q159 0 222.5 90t63.5 315v1323h254v-1311q0 -643 -536 -643q-262 0 -393 145.5t-123 432.5z" />
    <glyph glyph-name="K" unicode="K" horiz-adv-x="1790" 
d="M197 0v1921h254v-954l954 954h344l-807 -778l844 -1143h-336l-684 971l-315 -303v-668h-254z" />
    <glyph glyph-name="L" unicode="L" 
d="M197 0v1921h254v-1696h946v-225h-1200z" />
    <glyph glyph-name="M" unicode="M" horiz-adv-x="2236" 
d="M201 0v1921h381l454 -1360l90 -287q37 123 103 312l463 1335h340v-1921h-246v1610l-557 -1610h-230l-557 1634v-1634h-241z" />
    <glyph glyph-name="N" unicode="N" horiz-adv-x="1937" 
d="M205 0v1921h262l1008 -1507v1507h241v-1921h-258l-1012 1511v-1511h-241z" />
    <glyph glyph-name="O" unicode="O" horiz-adv-x="2089" 
d="M131 938q0 311 114.5 538.5t317.5 352.5t486 125q405 0 661 -272.5t256 -723.5q0 -491 -272.5 -741t-644.5 -250q-410 0 -664 278.5t-254 692.5zM393 934q0 -332 176 -541t480 -209q327 0 491 225.5t164 548.5q0 385 -188.5 582t-462.5 197q-348 0 -504 -229.5
t-156 -573.5z" />
    <glyph glyph-name="P" unicode="P" horiz-adv-x="1790" 
d="M209 0v1921h725q233 0 384.5 -41t252 -180t100.5 -336q0 -582 -717 -582h-491v-782h-254zM463 1008h495q451 0 451 352q0 123 -51 200.5t-135 106.5t-269 29h-491v-688z" />
    <glyph glyph-name="Q" unicode="Q" horiz-adv-x="2089" 
d="M1663 205q176 -119 328 -176l-78 -176q-205 73 -410 233q-217 -119 -475 -119q-426 0 -669.5 282.5t-243.5 708.5q0 488 268 742t653 254q402 0 660 -268.5t258 -722.5q0 -480 -291 -758zM1102 532q221 -61 364 -184q226 205 226 615q0 380 -188.5 577t-467.5 197
q-311 0 -485 -207t-174 -572q0 -311 157.5 -542.5t501.5 -231.5q135 0 258 54q-118 73 -254 106z" />
    <glyph glyph-name="R" unicode="R" horiz-adv-x="1937" 
d="M213 0v1921h852q201 0 338 -35t241.5 -168t104.5 -321q0 -451 -545 -525q197 -81 365 -348l336 -524h-320l-254 401q-143 222 -223 308t-149.5 114.5t-196.5 28.5h-295v-852h-254zM467 1073h545q475 0 475 324q0 311 -414 311h-606v-635z" />
    <glyph glyph-name="S" unicode="S" horiz-adv-x="1790" 
d="M123 618l237 21q29 -229 184.5 -335.5t385.5 -106.5q237 0 356 96t119 227q0 139 -110.5 213t-475.5 156q-368 86 -497 221t-129 315q0 258 198.5 393.5t476.5 135.5q357 0 535 -164t190 -410l-245 -20q-37 369 -467 369q-443 0 -443 -287q0 -119 92.5 -182.5
t366.5 -124.5q270 -62 415.5 -117t242 -178t96.5 -299q0 -271 -209 -422.5t-504 -151.5q-406 0 -608.5 184.5t-206.5 466.5z" />
    <glyph glyph-name="T" unicode="T" horiz-adv-x="1638" 
d="M696 0v1696h-635v225h1524v-225h-635v-1696h-254z" />
    <glyph glyph-name="U" unicode="U" horiz-adv-x="1937" 
d="M1466 1921h254v-1110q0 -238 -49 -422t-227 -303t-473 -119q-406 0 -582 199t-176 645v1110h254v-1110q0 -188 28.5 -319.5t143.5 -213t311 -81.5q275 0 395.5 127t120.5 487v1110z" />
    <glyph glyph-name="V" unicode="V" horiz-adv-x="1790" 
d="M758 0l-746 1921h275l499 -1397q62 -176 103 -311q41 139 102 311l520 1397h258l-753 -1921h-258z" />
    <glyph glyph-name="W" unicode="W" horiz-adv-x="2531" 
d="M541 0l-508 1921h262l291 -1257q53 -222 82 -394l86 353l364 1298h307l275 -971q106 -372 151 -680q25 136 95 418l303 1233h254l-529 -1921h-241l-406 1462l-61 226q-29 -115 -58 -226l-405 -1462h-262z" />
    <glyph glyph-name="X" unicode="X" horiz-adv-x="1790" 
d="M12 0l742 999l-656 922h303l349 -491q110 -156 155 -238q62 98 152 217l389 512h274l-676 -905l730 -1016h-316l-483 684q-33 49 -82 131q-70 -115 -94 -143l-484 -672h-303z" />
    <glyph glyph-name="Y" unicode="Y" horiz-adv-x="1790" 
d="M750 0v815l-742 1106h307l381 -578q99 -155 197 -327q86 155 209 340l373 565h294l-765 -1106v-815h-254z" />
    <glyph glyph-name="Z" unicode="Z" horiz-adv-x="1638" 
d="M53 0v238l1184 1458h-1073v225h1376v-225l-1196 -1471h1229v-225h-1520z" />
    <glyph glyph-name="bracketleft" unicode="[" horiz-adv-x="745" 
d="M184 -401v2453h521v-192h-287v-2065h287v-196h-521z" />
    <glyph glyph-name="backslash" unicode="\" horiz-adv-x="745" 
d="M557 -33l-557 1987h188l557 -1987h-188z" />
    <glyph glyph-name="bracketright" unicode="]" horiz-adv-x="745" 
d="M569 -401h-520v196h287v2065h-287v192h520v-2453z" />
    <glyph glyph-name="asciicircum" unicode="^" horiz-adv-x="1257" 
d="M311 905h-241l462 1049h193l463 -1049h-238l-323 783z" />
    <glyph glyph-name="underscore" unicode="_" 
d="M-41 -532v167h1565v-167h-1565z" />
    <glyph glyph-name="grave" unicode="`" horiz-adv-x="893" 
d="M610 1565h-192l-299 364h311z" />
    <glyph glyph-name="a" unicode="a" 
d="M1085 172q-237 -205 -512 -205q-196 0 -335.5 98.5t-139.5 303.5q0 139 72 231t178.5 135t294.5 68q287 33 422 82q0 135 -18.5 192.5t-94 104.5t-223.5 47q-143 0 -231 -51.5t-129 -214.5l-230 32q86 426 627 426q225 0 344 -61.5t156 -161.5t37 -301l4 -610
q0 -152 73 -287h-250q-36 74 -45 172zM1065 696q-131 -53 -385 -86q-225 -32 -278.5 -98t-53.5 -139q0 -221 283 -221q434 0 434 458v86z" />
    <glyph glyph-name="b" unicode="b" 
d="M393 0h-217v1921h234v-684q151 184 385 184q270 0 427.5 -194.5t157.5 -509.5q0 -324 -161.5 -537t-436.5 -213q-245 0 -389 205v-172zM393 705q0 -205 45 -313.5t131 -168t193 -59.5q184 0 282.5 153.5t98.5 378.5q0 217 -88 375t-285 158q-176 0 -276.5 -149.5
t-100.5 -374.5z" />
    <glyph glyph-name="c" unicode="c" horiz-adv-x="1343" 
d="M1085 512l234 -33q-37 -237 -192.5 -374.5t-389.5 -137.5q-299 0 -465 192.5t-166 532.5q0 377 180.5 553t450.5 176q471 0 557 -438l-229 -37q-66 283 -315 283q-402 0 -402 -533q0 -532 385 -532q303 0 352 348z" />
    <glyph glyph-name="d" unicode="d" 
d="M1081 0v176q-135 -209 -389 -209q-282 0 -442 209t-160 516q0 365 170 547t420 182q246 0 385 -188v688h233v-1921h-217zM336 692q0 -233 98 -380.5t279 -147.5q184 0 278 145.5t94 366.5q0 250 -98 401.5t-287 151.5q-364 0 -364 -537z" />
    <glyph glyph-name="e" unicode="e" 
d="M1130 446l242 -28q-119 -451 -610 -451q-189 0 -334 74t-237.5 233.5t-92.5 409.5q0 213 72 379t219.5 262t360.5 96q221 0 366.5 -108.5t204.5 -266t59 -411.5h-1040q16 -217 127 -344t295 -127q266 0 368 282zM356 827h774q-16 201 -120.5 301.5t-259.5 100.5
q-164 0 -274.5 -110.5t-119.5 -291.5z" />
    <glyph glyph-name="f" unicode="f" horiz-adv-x="745" 
d="M233 0v1208h-208v185h208v147q0 123 25 209t117 145.5t243 59.5q99 0 222 -25l-37 -205q-74 13 -139 13q-111 0 -154 -45t-43 -172v-127h270v-185h-270v-1208h-234z" />
    <glyph glyph-name="g" unicode="g" 
d="M135 -115l230 -32q28 -222 319 -222q152 0 246 61.5t118.5 158t24.5 329.5q-155 -180 -385 -180q-274 0 -438 198.5t-164 506.5q0 339 170 527.5t432 188.5q250 0 406 -196v168h221v-1205q0 -233 -39 -384.5t-190.5 -260t-401.5 -108.5q-274 0 -415.5 123t-133.5 327z
M328 721q0 -524 381 -524q188 0 286.5 139t98.5 377q0 225 -102.5 370.5t-286.5 145.5q-185 0 -281 -147.5t-96 -360.5z" />
    <glyph glyph-name="h" unicode="h" 
d="M176 0v1921h238v-688q164 188 413 188q226 0 355 -110.5t129 -429.5v-881h-238v881q0 340 -291 340q-368 0 -368 -459v-762h-238z" />
    <glyph glyph-name="i" unicode="i" horiz-adv-x="598" 
d="M176 1651v270h238v-270h-238zM176 0v1393h238v-1393h-238z" />
    <glyph glyph-name="j" unicode="j" horiz-adv-x="598" 
d="M176 1647v274h234v-274h-234zM-123 -541l45 201q70 -16 111 -16q82 0 112.5 57t30.5 229v1463h234v-1471q0 -241 -70 -364t-279 -123q-94 0 -184 24z" />
    <glyph glyph-name="k" unicode="k" horiz-adv-x="1343" 
d="M176 0v1921h238v-1094l557 566h307l-533 -516l586 -877h-291l-458 713l-168 -160v-553h-238z" />
    <glyph glyph-name="l" unicode="l" horiz-adv-x="598" 
d="M172 0v1921h238v-1921h-238z" />
    <glyph glyph-name="m" unicode="m" horiz-adv-x="2236" 
d="M176 0v1393h213v-197q143 225 422 225q307 0 393 -241q164 241 430 241q430 0 430 -467v-954h-237v877q0 344 -246 344q-340 0 -340 -414v-807h-237v905q0 316 -246 316q-164 0 -254 -108.5t-90 -391.5v-721h-238z" />
    <glyph glyph-name="n" unicode="n" 
d="M176 0v1393h213v-197q152 225 442 225q189 0 295.5 -71.5t143.5 -182t37 -311.5v-856h-234v848q0 373 -291 373q-368 0 -368 -459v-762h-238z" />
    <glyph glyph-name="o" unicode="o" 
d="M90 696q0 389 198.5 557t452.5 168q299 0 475.5 -192.5t176.5 -511.5q0 -385 -188.5 -567.5t-463.5 -182.5q-340 0 -495.5 213t-155.5 516zM332 696q0 -245 106.5 -388.5t302.5 -143.5q205 0 307.5 153.5t102.5 387.5q0 208 -98.5 366t-311.5 158q-204 0 -306.5 -151.5
t-102.5 -381.5z" />
    <glyph glyph-name="p" unicode="p" 
d="M176 -532v1925h217v-181q152 209 402 209q295 0 442 -206.5t147 -509.5q0 -365 -184 -551.5t-422 -186.5q-225 0 -364 176v-675h-238zM389 688q0 -237 96.5 -380.5t276.5 -143.5q188 0 284.5 153.5t96.5 391.5q0 233 -96.5 380.5t-272.5 147.5q-184 0 -284.5 -162
t-100.5 -387z" />
    <glyph glyph-name="q" unicode="q" 
d="M1065 -532v679q-127 -180 -365 -180q-294 0 -450 225.5t-156 516.5q0 356 170 534t416 178q258 0 410 -217v189h208v-1925h-233zM336 700q0 -233 100.5 -384.5t284.5 -151.5q176 0 272.5 147.5t96.5 368.5q0 238 -102.5 397.5t-282.5 159.5q-185 0 -277 -151.5
t-92 -385.5z" />
    <glyph glyph-name="r" unicode="r" horiz-adv-x="893" 
d="M172 0v1393h213v-213q135 241 303 241q119 0 242 -73l-82 -222q-86 54 -172 54q-266 0 -266 -451v-729h-238z" />
    <glyph glyph-name="s" unicode="s" horiz-adv-x="1343" 
d="M82 414l233 37q41 -287 361 -287q319 0 319 221q0 78 -57 117t-254 88q-213 53 -315.5 92t-174 127t-71.5 215q0 172 137 284.5t375 112.5q495 0 553 -389l-234 -33q-32 230 -303 230q-303 0 -303 -180q0 -70 53.5 -107t274.5 -98q246 -66 334 -100.5t157.5 -123
t69.5 -210.5q0 -201 -155.5 -322t-405.5 -121q-512 0 -594 447z" />
    <glyph glyph-name="t" unicode="t" horiz-adv-x="745" 
d="M692 213l33 -209q-98 -20 -176 -20q-111 0 -184.5 32.5t-108.5 100t-35 293.5v798h-176v185h176v344l234 139v-483h237v-185h-237v-815q0 -106 22.5 -149t112.5 -43q37 0 102 12z" />
    <glyph glyph-name="u" unicode="u" 
d="M1090 0v205q-164 -238 -443 -238q-184 0 -292.5 76t-145.5 184.5t-37 300.5v865h238v-775q0 -163 12 -247t81.5 -141.5t188.5 -57.5q176 0 274.5 102.5t98.5 372.5v746h233v-1393h-208z" />
    <glyph glyph-name="v" unicode="v" horiz-adv-x="1343" 
d="M561 0l-528 1393h250l299 -836q53 -139 90 -278q28 102 86 262l311 852h242l-529 -1393h-221z" />
    <glyph glyph-name="w" unicode="w" horiz-adv-x="1937" 
d="M434 0l-426 1393h246l303 -1102l291 1102h246l274 -1074l320 1074h229l-434 -1393h-246l-274 1069l-283 -1069h-246z" />
    <glyph glyph-name="x" unicode="x" horiz-adv-x="1343" 
d="M20 0l508 725l-471 668h295l213 -328q58 -82 99 -156q57 82 106 156l234 328h282l-479 -656l516 -737h-291l-360 549l-369 -549h-283z" />
    <glyph glyph-name="y" unicode="y" horiz-adv-x="1343" 
d="M168 -537l-29 222q78 -21 135 -21q115 0 166.5 53.5t124.5 270.5l4 8l-528 1397h258l287 -807q61 -168 102 -324q37 160 98 320l295 811h238l-528 -1418q-119 -315 -213.5 -427.5t-258.5 -112.5q-69 0 -151 28z" />
    <glyph glyph-name="z" unicode="z" horiz-adv-x="1343" 
d="M53 0v193l885 1015q-152 -8 -266 -8h-566v193h1135v-156l-897 -1044q160 12 295 12h643v-205h-1229z" />
    <glyph glyph-name="braceleft" unicode="{" horiz-adv-x="897" 
d="M82 938q156 0 213 102.5t57 401.5q0 307 33 419.5t123 170t262 57.5h70v-209h-37q-152 0 -191 -57.5t-39 -208.5q0 -283 -10 -403.5t-73.5 -221t-186.5 -162.5q123 -49 196.5 -167.5t73.5 -421.5q0 -222 6.5 -301.5t49.5 -120.5t174 -41h37v-205h-70q-201 0 -272.5 61.5
t-106.5 141.5t-35 424q0 295 -51 407.5t-223 116.5v217z" />
    <glyph glyph-name="bar" unicode="|" horiz-adv-x="696" 
d="M246 -565v2519h205v-2519h-205z" />
    <glyph glyph-name="braceright" unicode="}" horiz-adv-x="897" 
d="M819 938v-217q-123 0 -196.5 -74t-73.5 -430q0 -311 -33 -423.5t-127 -168t-254 -55.5h-74v205h41q148 0 187 57t39 213q0 287 10 405.5t75.5 223t188.5 153.5q-164 78 -219 205t-55 385q0 262 -8.5 323.5t-45 100.5t-172.5 39h-41v209h74q156 0 246 -47t127 -153.5
t37 -377.5q0 -323 49 -448t225 -125z" />
    <glyph glyph-name="asciitilde" unicode="~" horiz-adv-x="1569" 
d="M115 729v270q139 156 364 156q144 0 410 -115q147 -61 225 -61q176 0 340 180v-278q-160 -148 -360 -148q-140 0 -377 107q-156 69 -262 69q-156 0 -340 -180z" />
    <glyph glyph-name="delete" horiz-adv-x="2048" 
 />
    <glyph glyph-name="nonbreakingspace" unicode="&#xa0;" horiz-adv-x="918" 
 />
    <glyph glyph-name="exclamdown" unicode="&#xa1;" horiz-adv-x="893" 
d="M586 1122h-275v271h275v-271zM594 -102v-426h-291v426l66 1015h151z" />
    <glyph glyph-name="cent" unicode="&#xa2;" 
d="M684 168q41 -12 82 -12q119 0 221 82q107 81 131 274l238 -29q-45 -241 -205 -381q-164 -139 -381 -139q-74 0 -135 21l-156 -521l-147 41l151 525q-344 172 -344 659q0 365 180 549q177 188 439 188q28 0 61 -4t70 -8l147 508l144 -41l-148 -508q242 -98 299 -389
l-229 -37q-37 148 -127 225zM770 1237q-172 0 -278 -135q-111 -131 -111 -402q0 -344 164 -467l291 1000z" />
    <glyph glyph-name="sterling" unicode="&#xa3;" 
d="M934 1061v-197h-373q25 -53 25 -114q0 -250 -234 -500q111 29 189 29q106 0 245 -33q238 -53 304 -53q98 0 253 73l74 -217q-188 -82 -315 -82q-94 0 -279 58q-205 61 -303 61q-205 0 -393 -123l-90 225q299 177 299 517q0 81 -21 159h-258v197h201q-65 221 -65 344
q0 250 167 397q164 152 426 152q205 0 373 -119q168 -115 209 -377l-233 -37q-21 160 -119 250t-234 90q-127 0 -233 -86q-107 -86 -107 -233q0 -144 78 -381h414z" />
    <glyph glyph-name="currency" unicode="&#xa4;" horiz-adv-x="1544" 
d="M1389 446l-111 -110l-184 184q-160 -110 -328 -110q-164 0 -324 110l-184 -184l-111 110l189 181q-111 164 -111 323q0 164 111 328l-189 176l111 115l184 -185q152 107 324 107t328 -107l184 185l111 -115l-189 -176q107 -160 107 -328q0 -164 -107 -323zM1151 950
q0 160 -112.5 272.5t-272.5 112.5q-164 0 -274.5 -112.5t-110.5 -272.5q0 -159 112.5 -272t272.5 -113q139 0 262 102.5t123 282.5z" />
    <glyph glyph-name="yen" unicode="&#xa5;" 
d="M627 426h-545v180h545v189h-545v196h446l-532 930h262l381 -676q20 -41 47 -90t51 -111q33 74 111 213l356 664h279l-529 -930h447v-196h-541v-189h541v-180h-541v-426h-233v426z" />
    <glyph glyph-name="brokenbar" unicode="&#xa6;" horiz-adv-x="696" 
d="M451 918h-205v1036h205v-1036zM451 -565h-205v1036h205v-1036z" />
    <glyph glyph-name="section" unicode="&#xa7;" 
d="M426 -57q57 -308 332 -308q135 0 213 66q73 70 73 160q0 61 -61 139q-57 78 -434 307q-90 58 -155.5 103t-106.5 73q-78 66 -131 164q-50 98 -50 197q0 110 70 217q74 110 225 151q-168 164 -168 328q0 168 132 291q127 123 344 123q487 0 548 -455l-241 -24
q-49 286 -283 286q-119 0 -196 -65q-74 -66 -74 -144q0 -82 78 -159q37 -37 129 -100.5t239 -153.5q271 -168 365 -275q94 -106 94 -258q0 -262 -295 -373q209 -159 209 -368q0 -184 -147 -307q-144 -123 -373 -123q-504 0 -574 475zM954 319q193 99 193 246q0 74 -66 156
q-65 78 -299 221q-77 49 -143 94t-123 86q-197 -102 -197 -254q0 -82 62 -155q53 -70 270 -201q90 -49 166 -98t137 -95z" />
    <glyph glyph-name="dieresis" unicode="&#xa8;" horiz-adv-x="893" 
d="M82 1933h246v-270h-246v270zM569 1933h246v-270h-246v270z" />
    <glyph glyph-name="copyright" unicode="&#xa9;" horiz-adv-x="1978" 
d="M995 1954q246 0 484 -127q237 -127 368 -365q135 -241 135 -499q0 -410 -290 -701q-291 -287 -697 -287q-254 0 -491 131q-242 132 -369 365q-131 238 -131 492q0 303 160 544q160 242 393 344q225 103 438 103zM995 1790q-348 0 -589 -242q-238 -241 -238 -585
q0 -336 242 -578q241 -246 585 -246q201 0 406 107q201 106 307 311q111 209 111 406q0 344 -242 585q-242 242 -582 242zM1470 758q-36 -164 -167 -262q-127 -99 -308 -99q-233 0 -377 152q-143 147 -143 414q0 262 143 409q144 148 390 148q348 0 442 -308l-156 -41
q-82 201 -295 201q-143 0 -245 -102q-99 -103 -99 -312q0 -200 90 -303q95 -102 242 -102q111 0 201 61q90 66 123 189z" />
    <glyph glyph-name="ordfeminine" unicode="&#xaa;" horiz-adv-x="995" 
d="M717 1118q-156 -139 -336 -139q-123 0 -221 70q-99 73 -99 217q0 127 74 184q78 66 246 94l192 29q25 4 55.5 10t71.5 19q0 106 -45 151q-41 45 -159 45q-193 0 -222 -164l-180 49q58 271 402 271q233 0 315 -90q78 -90 78 -230v-393q0 -176 53 -237h-192q-33 53 -33 114
zM696 1446q-37 -8 -100.5 -20.5t-149.5 -24.5q-188 -33 -188 -135q0 -49 41 -90q45 -41 127 -41q94 0 164 49q65 49 86 98q20 53 20 164z" />
    <glyph glyph-name="guillemotleft" unicode="&#xab;" 
d="M786 94h-192l-418 598l418 598h192l-340 -598zM1298 94h-196l-414 598l414 598h196l-348 -598z" />
    <glyph glyph-name="logicalnot" unicode="&#xac;" horiz-adv-x="1569" 
d="M1196 557v573h-1044v222h1265v-795h-221z" />
    <glyph glyph-name="sfthyphen" unicode="&#xad;" horiz-adv-x="926" 
d="M803 598h-680v176h680v-176z" />
    <glyph glyph-name="registered" unicode="&#xae;" horiz-adv-x="1978" 
d="M995 1954q246 0 484 -127q237 -127 368 -365q135 -241 135 -499q0 -410 -290 -701q-291 -287 -697 -287q-254 0 -491 131q-242 132 -369 365q-131 238 -131 492q0 303 160 544q160 242 393 344q225 103 438 103zM995 1790q-348 0 -589 -242q-238 -241 -238 -585
q0 -336 242 -578q241 -246 585 -246q201 0 406 107q201 106 307 311q111 209 111 406q0 344 -242 585q-242 242 -582 242zM561 1483h365q245 0 348 -74q106 -70 106 -213q0 -115 -82 -205q-86 -86 -221 -98q94 -29 246 -266l131 -209h-209l-94 168q-98 176 -160 229
q-57 53 -160 53h-98v-450h-172v1065zM938 1020q258 0 258 160q0 82 -61.5 120.5t-208.5 38.5h-193v-319h205z" />
    <glyph glyph-name="macron" unicode="&#xaf;" horiz-adv-x="1483" 
d="M-41 2220h1565v-168h-1565v168z" />
    <glyph glyph-name="degree" unicode="&#xb0;" horiz-adv-x="1073" 
d="M168 1593q0 148 106 254q107 107 254 107q131 0 250 -94q119 -99 119 -267q0 -94 -43 -174t-129 -137t-197 -57q-127 0 -241 98q-119 98 -119 270zM311 1593q0 -94 62 -159q65 -66 159 -66q107 0 160 74q62 69 62 151q0 45 -18.5 84t-49.5 70t-69.5 47t-84.5 16
q-81 0 -151 -57t-70 -160z" />
    <glyph glyph-name="plusminus" unicode="&#xb1;" horiz-adv-x="1720" 
d="M135 356h1450v-356h-1450v356zM684 1450h352v-307h549v-357h-549v-311h-352v311h-549v357h549v307z" />
    <glyph glyph-name="twosuperior" unicode="&#xb2;" horiz-adv-x="893" 
d="M33 958q8 164 332 402q172 123 221 172q53 53 53 115q0 143 -180 143q-160 0 -201 -152l-197 25q66 283 402 283q196 0 287 -78q94 -78 94 -189q0 -114 -66 -196q-37 -41 -106.5 -100.5t-171.5 -137.5q-111 -78 -156 -127h508v-160h-819z" />
    <glyph glyph-name="threesuperior" unicode="&#xb3;" horiz-adv-x="893" 
d="M233 1237q46 -147 201 -147q98 0 152 53q57 53 57 123q0 143 -209 143l-45 -4h-18h-11l29 143q209 0 209 135q0 25 -10 45.5t-30.5 37t-49.5 24.5t-70 8q-135 0 -184 -131l-188 29q49 135 135 192q82 58 237 58q361 0 361 -246q0 -152 -181 -209q230 -53 230 -250
q0 -123 -107 -213q-102 -90 -295 -90q-348 0 -401 279z" />
    <glyph glyph-name="acute" unicode="&#xb4;" horiz-adv-x="893" 
d="M467 1933h307l-287 -368h-196z" />
    <glyph glyph-name="mu" unicode="&#xb5;" horiz-adv-x="1544" 
d="M1335 0h-213v168q-118 -201 -348 -201q-205 0 -332 172v-671h-233v1925h233v-590q0 -328 33 -414q33 -90 107 -147q69 -62 184 -62q102 0 180 53q82 58 119 148t37 418v594h233v-1393z" />
    <glyph glyph-name="paragraph" unicode="&#xb6;" horiz-adv-x="1442" 
d="M528 836q-65 0 -128.5 14t-121 43t-106.5 74t-90 102q-82 123 -82 299q0 258 164 406q160 147 459 147h827v-225h-188v-2228h-222v2228h-290v-2228h-222v1368z" />
    <glyph glyph-name="periodcentered" unicode="&#xb7;" horiz-adv-x="745" 
d="M242 1081h270v-270h-270v270z" />
    <glyph glyph-name="cedilla" unicode="&#xb8;" horiz-adv-x="635" 
d="M422 0l-111 -168q29 8 49.5 12t45.5 4q45 0 88 -14t77.5 -40.5t55 -67.5t20.5 -91q0 -131 -92 -200.5t-268 -69.5q-49 0 -92 6t-80 14.5t-68 16.5t-47 20l53 132q17 -9 39.5 -17t49 -14t55 -10.5t57.5 -4.5t55.5 8.5t45 20.5t30.5 30.5t12 39.5q0 45 -34.5 71.5
t-92.5 26.5q-32 0 -52.5 -4t-45.5 -12l-61 57l155 254h156z" />
    <glyph glyph-name="onesuperior" unicode="&#xb9;" horiz-adv-x="893" 
d="M434 1688q-131 -107 -295 -152v164q189 61 344 246h140v-988h-189v730z" />
    <glyph glyph-name="ordmasculine" unicode="&#xba;" horiz-adv-x="979" 
d="M487 1954q189 0 308 -131q123 -131 123 -361q0 -200 -107 -348q-106 -143 -319 -143q-197 0 -316 131t-119 352q0 238 119 369q123 131 311 131zM487 1782q-233 0 -233 -320q0 -168 65 -245q66 -74 168 -74q238 0 238 323q0 160 -70 238q-65 78 -168 78z" />
    <glyph glyph-name="guillemotright" unicode="&#xbb;" 
d="M692 1290h197l418 -598l-418 -598h-193l340 598zM184 1290h197l410 -598l-410 -598h-197l344 598z" />
    <glyph glyph-name="onequarter" unicode="&#xbc;" horiz-adv-x="2236" 
d="M1774 1954h204l-1441 -2028h-205zM434 1688q-131 -107 -295 -152v164q189 61 344 246h140v-988h-189v730zM1876 164h-504v160l533 618h155v-639h140v-139h-140v-205h-184v205zM1876 647l-303 -344h303v344z" />
    <glyph glyph-name="onehalf" unicode="&#xbd;" horiz-adv-x="2236" 
d="M1741 1954h209l-1446 -2028h-205zM434 1688q-131 -107 -295 -152v164q189 61 344 246h140v-988h-189v730zM1372 -41q25 172 336 397q172 123 221 176q49 54 49 111q0 143 -180 143q-156 0 -196 -147l-201 20q74 283 401 283q197 0 291 -78q94 -73 94 -184
q0 -107 -61 -188q-58 -82 -287 -246q-106 -78 -151 -127h503v-160h-819z" />
    <glyph glyph-name="threequarters" unicode="&#xbe;" horiz-adv-x="2236" 
d="M1774 1954h204l-1441 -2028h-205zM233 1237q46 -147 201 -147q98 0 152 53q57 53 57 123q0 143 -205 143l-78 -4l29 143q209 0 209 135q0 25 -10 45.5t-30.5 37t-49.5 24.5t-70 8q-135 0 -184 -131l-188 29q49 135 135 192q82 58 237 58q361 0 361 -246q0 -152 -181 -209
q230 -53 230 -250q0 -123 -107 -213q-102 -90 -295 -90q-348 0 -401 279zM1872 164h-500v160l529 618h159v-639h140v-139h-140v-205h-188v205zM1872 647l-299 -344h299v344z" />
    <glyph glyph-name="questiondown" unicode="&#xbf;" horiz-adv-x="1638" 
d="M958 1122h-266v271h266v-271zM942 918q0 -25 2 -41.5t2 -24.5q0 -184 -61 -295q-62 -106 -242 -266q-127 -115 -160 -176q-32 -62 -32 -135q0 -144 106 -246q111 -103 262 -103q328 0 385 389l242 -28q-33 -271 -197 -414q-164 -139 -426 -139q-282 0 -450 151
q-164 156 -164 373q0 127 57 234q58 102 230 254q147 135 184 208q37 74 37 259h225z" />
    <glyph glyph-name="Agrave" unicode="&#xc0;" horiz-adv-x="1790" 
d="M-4 0l737 1921h275l786 -1921h-291l-221 582h-807l-209 -582h-270zM549 791h651l-201 532q-90 242 -135 397q-37 -192 -102 -368zM966 2102h-192l-299 364h311z" />
    <glyph glyph-name="Aacute" unicode="&#xc1;" horiz-adv-x="1790" 
d="M-4 0l737 1921h275l786 -1921h-291l-221 582h-807l-209 -582h-270zM549 791h651l-201 532q-90 242 -135 397q-37 -192 -102 -368zM901 2470h307l-287 -368h-196z" />
    <glyph glyph-name="Acircumflex" unicode="&#xc2;" horiz-adv-x="1790" 
d="M-4 0l737 1921h275l786 -1921h-291l-221 582h-807l-209 -582h-270zM549 791h651l-201 532q-90 242 -135 397q-37 -192 -102 -368zM725 2102h-270l282 368h254l291 -368h-262l-147 225z" />
    <glyph glyph-name="Atilde" unicode="&#xc3;" horiz-adv-x="1790" 
d="M-4 0l737 1921h275l786 -1921h-291l-221 582h-807l-209 -582h-270zM549 791h651l-201 532q-90 242 -135 397q-37 -192 -102 -368zM409 2076q0 140 78 218q74 81 188 81q82 0 222 -69q77 -41 122 -41q87 0 99 115h168q0 -148 -74 -226q-74 -73 -180 -73q-82 0 -217 73
q-90 45 -131 45q-99 0 -99 -123h-176z" />
    <glyph glyph-name="Adieresis" unicode="&#xc4;" horiz-adv-x="1790" 
d="M-4 0l737 1921h275l786 -1921h-291l-221 582h-807l-209 -582h-270zM549 791h651l-201 532q-90 242 -135 397q-37 -192 -102 -368zM492 2367h246v-270h-246v270zM979 2367h246v-270h-246v270z" />
    <glyph glyph-name="Aring" unicode="&#xc5;" horiz-adv-x="1790" 
d="M-4 0l737 1921h275l786 -1921h-291l-221 582h-807l-209 -582h-270zM549 791h651l-201 532q-90 242 -135 397q-37 -192 -102 -368zM574 2540q0 -37 12 -67.5t36.5 -53t55.5 -35t63 -12.5q33 0 64 12.5t53.5 35t34.5 53t12 67.5q0 33 -12 63.5t-34.5 53t-53.5 35t-64 12.5
q-32 0 -63 -12.5t-55.5 -35t-36.5 -53t-12 -63.5zM422 2540q0 65 22.5 124.5t65.5 104.5t102.5 70t128.5 25q66 0 125.5 -25t104.5 -70t69.5 -104.5t24.5 -124.5q0 -70 -24.5 -129t-69.5 -104.5t-104.5 -70t-125.5 -24.5q-69 0 -128.5 24.5t-102.5 70t-65.5 104.5t-22.5 129
z" />
    <glyph glyph-name="AE" unicode="&#xc6;" horiz-adv-x="2683" 
d="M926 1921h1577v-225h-967v-590h897v-229h-897v-652h1004v-225h-1258v553h-745l-263 -553h-274zM1282 778v918h-192l-443 -918h635z" />
    <glyph glyph-name="Ccedilla" unicode="&#xc7;" horiz-adv-x="1937" 
d="M1577 676l254 -66q-164 -643 -795 -643q-467 0 -684 293t-217 715q0 487 264.5 733t640.5 246q598 0 758 -561l-250 -58q-127 402 -512 402q-344 0 -491.5 -217t-147.5 -545q0 -418 176.5 -604.5t442.5 -186.5q454 0 561 492zM901 29h172l-41 -140q111 -12 168 -65
q58 -57 58 -127q0 -94 -95 -172q-90 -78 -286 -78q-95 0 -189 16l17 156l123 -8q208 0 208 98q0 90 -204 90z" />
    <glyph glyph-name="Egrave" unicode="&#xc8;" horiz-adv-x="1790" 
d="M213 0v1921h1389v-225h-1135v-590h1061v-225h-1061v-656h1180v-225h-1434zM1069 2106h-192l-299 364h311z" />
    <glyph glyph-name="Eacute" unicode="&#xc9;" horiz-adv-x="1790" 
d="M213 0v1921h1389v-225h-1135v-590h1061v-225h-1061v-656h1180v-225h-1434zM926 2474h307l-287 -368h-196z" />
    <glyph glyph-name="Ecircumflex" unicode="&#xca;" horiz-adv-x="1790" 
d="M213 0v1921h1389v-225h-1135v-590h1061v-225h-1061v-656h1180v-225h-1434zM762 2106h-270l282 368h254l291 -368h-262l-147 225z" />
    <glyph glyph-name="Edieresis" unicode="&#xcb;" horiz-adv-x="1790" 
d="M213 0v1921h1389v-225h-1135v-590h1061v-225h-1061v-656h1180v-225h-1434zM541 2367h246v-270h-246v270zM1028 2367h246v-270h-246v270z" />
    <glyph glyph-name="Igrave" unicode="&#xcc;" horiz-adv-x="745" 
d="M250 0v1921h254v-1921h-254zM557 2106h-192l-299 364h311z" />
    <glyph glyph-name="Iacute" unicode="&#xcd;" horiz-adv-x="745" 
d="M250 0v1921h254v-1921h-254zM414 2474h307l-287 -368h-196z" />
    <glyph glyph-name="Icircumflex" unicode="&#xce;" horiz-adv-x="745" 
d="M250 0v1921h254v-1921h-254zM250 2106h-270l282 368h254l291 -368h-262l-147 225z" />
    <glyph glyph-name="Idieresis" unicode="&#xcf;" horiz-adv-x="745" 
d="M250 0v1921h254v-1921h-254zM29 2367h246v-270h-246v270zM516 2367h246v-270h-246v270z" />
    <glyph glyph-name="Eth" unicode="&#xd0;" horiz-adv-x="1937" 
d="M209 872h-213v177h213v872h659q308 0 484 -74q176 -73 311 -295q131 -221 131 -581q0 -418 -197 -692q-200 -279 -696 -279h-692v872zM872 225q213 0 353 58q139 57 225 233t86 459q0 258 -82 426q-78 168 -209 229q-131 66 -381 66h-401v-647h528v-177h-528v-647h409z
" />
    <glyph glyph-name="Ntilde" unicode="&#xd1;" horiz-adv-x="1937" 
d="M205 0v1921h262l1008 -1507v1507h241v-1921h-258l-1012 1511v-1511h-241zM549 2117q0 140 78 218q74 81 188 81q82 0 222 -69q77 -41 122 -41q87 0 99 115h168q0 -148 -74 -226q-74 -73 -180 -73q-82 0 -217 73q-90 45 -131 45q-99 0 -99 -123h-176z" />
    <glyph glyph-name="Ograve" unicode="&#xd2;" horiz-adv-x="2089" 
d="M131 938q0 311 114.5 538.5t317.5 352.5t486 125q405 0 661 -272.5t256 -723.5q0 -491 -272.5 -741t-644.5 -250q-410 0 -664 278.5t-254 692.5zM393 934q0 -332 176 -541t480 -209q327 0 491 225.5t164 548.5q0 385 -188.5 582t-462.5 197q-348 0 -504 -229.5
t-156 -573.5zM1171 2106h-192l-299 364h311z" />
    <glyph glyph-name="Oacute" unicode="&#xd3;" horiz-adv-x="2089" 
d="M131 938q0 311 114.5 538.5t317.5 352.5t486 125q405 0 661 -272.5t256 -723.5q0 -491 -272.5 -741t-644.5 -250q-410 0 -664 278.5t-254 692.5zM393 934q0 -332 176 -541t480 -209q327 0 491 225.5t164 548.5q0 385 -188.5 582t-462.5 197q-348 0 -504 -229.5
t-156 -573.5zM1085 2474h307l-287 -368h-196z" />
    <glyph glyph-name="Ocircumflex" unicode="&#xd4;" horiz-adv-x="2089" 
d="M131 938q0 311 114.5 538.5t317.5 352.5t486 125q405 0 661 -272.5t256 -723.5q0 -491 -272.5 -741t-644.5 -250q-410 0 -664 278.5t-254 692.5zM393 934q0 -332 176 -541t480 -209q327 0 491 225.5t164 548.5q0 385 -188.5 582t-462.5 197q-348 0 -504 -229.5
t-156 -573.5zM901 2126h-270l282 368h254l291 -368h-262l-147 225z" />
    <glyph glyph-name="Otilde" unicode="&#xd5;" horiz-adv-x="2089" 
d="M131 938q0 311 114.5 538.5t317.5 352.5t486 125q405 0 661 -272.5t256 -723.5q0 -491 -272.5 -741t-644.5 -250q-410 0 -664 278.5t-254 692.5zM393 934q0 -332 176 -541t480 -209q327 0 491 225.5t164 548.5q0 385 -188.5 582t-462.5 197q-348 0 -504 -229.5
t-156 -573.5zM606 2138q0 140 78 218q74 81 188 81q82 0 222 -69q77 -41 122 -41q87 0 99 115h168q0 -148 -74 -226q-74 -73 -180 -73q-82 0 -217 73q-90 45 -131 45q-99 0 -99 -123h-176z" />
    <glyph glyph-name="Odieresis" unicode="&#xd6;" horiz-adv-x="2089" 
d="M131 938q0 311 114.5 538.5t317.5 352.5t486 125q405 0 661 -272.5t256 -723.5q0 -491 -272.5 -741t-644.5 -250q-410 0 -664 278.5t-254 692.5zM393 934q0 -332 176 -541t480 -209q327 0 491 225.5t164 548.5q0 385 -188.5 582t-462.5 197q-348 0 -504 -229.5
t-156 -573.5zM680 2371h246v-270h-246v270zM1167 2371h246v-270h-246v270z" />
    <glyph glyph-name="multiply" unicode="&#xd7;" horiz-adv-x="1569" 
d="M623 946l-410 414l160 160l409 -410l414 410l156 -160l-410 -410l414 -413l-160 -160l-414 414l-413 -414l-156 160z" />
    <glyph glyph-name="Oslash" unicode="&#xd8;" horiz-adv-x="2089" 
d="M1860 1991l127 -111l-230 -258q205 -291 205 -664q0 -454 -258 -720q-262 -271 -655 -271q-336 0 -590 205l-221 -250l-132 111l234 258q-61 90 -102 168t-66 147q-49 144 -49 348q0 443 254 721q250 279 672 279q327 0 589 -209zM1479 1569q-197 168 -430 168
q-271 0 -467 -189q-197 -184 -197 -590q0 -278 119 -483zM614 344q189 -160 426 -160q287 0 476 201q184 205 184 565q0 283 -111 484z" />
    <glyph glyph-name="Ugrave" unicode="&#xd9;" horiz-adv-x="1937" 
d="M1466 1921h254v-1110q0 -238 -49 -422t-227 -303t-473 -119q-406 0 -582 199t-176 645v1110h254v-1110q0 -188 28.5 -319.5t143.5 -213t311 -81.5q275 0 395.5 127t120.5 487v1110zM1069 2106h-192l-299 364h311z" />
    <glyph glyph-name="Uacute" unicode="&#xda;" horiz-adv-x="1937" 
d="M1466 1921h254v-1110q0 -238 -49 -422t-227 -303t-473 -119q-406 0 -582 199t-176 645v1110h254v-1110q0 -188 28.5 -319.5t143.5 -213t311 -81.5q275 0 395.5 127t120.5 487v1110zM926 2474h307l-287 -368h-196z" />
    <glyph glyph-name="Ucircumflex" unicode="&#xdb;" horiz-adv-x="1937" 
d="M1466 1921h254v-1110q0 -238 -49 -422t-227 -303t-473 -119q-406 0 -582 199t-176 645v1110h254v-1110q0 -188 28.5 -319.5t143.5 -213t311 -81.5q275 0 395.5 127t120.5 487v1110zM803 2106h-270l282 368h254l291 -368h-262l-147 225z" />
    <glyph glyph-name="Udieresis" unicode="&#xdc;" horiz-adv-x="1937" 
d="M1466 1921h254v-1110q0 -238 -49 -422t-227 -303t-473 -119q-406 0 -582 199t-176 645v1110h254v-1110q0 -188 28.5 -319.5t143.5 -213t311 -81.5q275 0 395.5 127t120.5 487v1110zM582 2371h246v-270h-246v270zM1069 2371h246v-270h-246v270z" />
    <glyph glyph-name="Yacute" unicode="&#xdd;" horiz-adv-x="1790" 
d="M750 0v815l-742 1106h307l381 -578q99 -155 197 -327q86 155 209 340l373 565h294l-765 -1106v-815h-254zM926 2474h307l-287 -368h-196z" />
    <glyph glyph-name="Thorn" unicode="&#xde;" horiz-adv-x="1790" 
d="M209 1921h254v-389h471q250 0 393 -45q148 -41 246 -180q102 -136 102 -332q0 -230 -151 -406q-148 -180 -570 -180h-491v-389h-254v1921zM958 618q455 0 455 349q0 127 -65 209q-66 86 -144 106q-78 21 -254 21h-487v-685h495z" />
    <glyph glyph-name="germandbls" unicode="&#xdf;" horiz-adv-x="1638" 
d="M201 1311q0 196 41 323q37 131 176 226q135 94 344 94q221 0 352 -111q131 -110 131 -266q0 -135 -106 -311q-90 -164 -90 -222q0 -49 32 -90q17 -20 56 -51t96 -67q221 -148 270 -238q53 -90 53 -188q0 -160 -122 -304q-123 -139 -357 -139q-168 0 -291 86
q-122 90 -184 230l201 94q115 -213 270 -213q98 0 168 65q74 70 74 160q0 74 -33 115q-33 45 -156 127q-229 160 -274 233q-49 78 -49 144q0 94 102 270q115 192 115 274t-74 144q-69 65 -192 65q-140 0 -230 -90q-90 -86 -90 -373v-1298h-233v1311z" />
    <glyph glyph-name="agrave" unicode="&#xe0;" 
d="M1085 172q-237 -205 -512 -205q-196 0 -335.5 98.5t-139.5 303.5q0 139 72 231t178.5 135t294.5 68q287 33 422 82q0 135 -18.5 192.5t-94 104.5t-223.5 47q-143 0 -231 -51.5t-129 -214.5l-230 32q86 426 627 426q225 0 344 -61.5t156 -161.5t37 -301l4 -610
q0 -152 73 -287h-250q-36 74 -45 172zM1065 696q-131 -53 -385 -86q-225 -32 -278.5 -98t-53.5 -139q0 -221 283 -221q434 0 434 458v86zM868 1565h-192l-299 364h311z" />
    <glyph glyph-name="aacute" unicode="&#xe1;" 
d="M1085 172q-237 -205 -512 -205q-196 0 -335.5 98.5t-139.5 303.5q0 139 72 231t178.5 135t294.5 68q287 33 422 82q0 135 -18.5 192.5t-94 104.5t-223.5 47q-143 0 -231 -51.5t-129 -214.5l-230 32q86 426 627 426q225 0 344 -61.5t156 -161.5t37 -301l4 -610
q0 -152 73 -287h-250q-36 74 -45 172zM1065 696q-131 -53 -385 -86q-225 -32 -278.5 -98t-53.5 -139q0 -221 283 -221q434 0 434 458v86zM786 1933h307l-287 -368h-196z" />
    <glyph glyph-name="acircumflex" unicode="&#xe2;" 
d="M1085 172q-237 -205 -512 -205q-196 0 -335.5 98.5t-139.5 303.5q0 139 72 231t178.5 135t294.5 68q287 33 422 82q0 135 -18.5 192.5t-94 104.5t-223.5 47q-143 0 -231 -51.5t-129 -214.5l-230 32q86 426 627 426q225 0 344 -61.5t156 -161.5t37 -301l4 -610
q0 -152 73 -287h-250q-36 74 -45 172zM1065 696q-131 -53 -385 -86q-225 -32 -278.5 -98t-53.5 -139q0 -221 283 -221q434 0 434 458v86zM602 1565h-270l282 368h254l291 -368h-262l-147 225z" />
    <glyph glyph-name="atilde" unicode="&#xe3;" 
d="M1085 172q-237 -205 -512 -205q-196 0 -335.5 98.5t-139.5 303.5q0 139 72 231t178.5 135t294.5 68q287 33 422 82q0 135 -18.5 192.5t-94 104.5t-223.5 47q-143 0 -231 -51.5t-129 -214.5l-230 32q86 426 627 426q225 0 344 -61.5t156 -161.5t37 -301l4 -610
q0 -152 73 -287h-250q-36 74 -45 172zM1065 696q-131 -53 -385 -86q-225 -32 -278.5 -98t-53.5 -139q0 -221 283 -221q434 0 434 458v86zM299 1597q0 140 78 218q74 81 188 81q82 0 222 -69q77 -41 122 -41q87 0 99 115h168q0 -148 -74 -226q-74 -73 -180 -73q-82 0 -217 73
q-90 45 -131 45q-99 0 -99 -123h-176z" />
    <glyph glyph-name="adieresis" unicode="&#xe4;" 
d="M1085 172q-237 -205 -512 -205q-196 0 -335.5 98.5t-139.5 303.5q0 139 72 231t178.5 135t294.5 68q287 33 422 82q0 135 -18.5 192.5t-94 104.5t-223.5 47q-143 0 -231 -51.5t-129 -214.5l-230 32q86 426 627 426q225 0 344 -61.5t156 -161.5t37 -301l4 -610
q0 -152 73 -287h-250q-36 74 -45 172zM1065 696q-131 -53 -385 -86q-225 -32 -278.5 -98t-53.5 -139q0 -221 283 -221q434 0 434 458v86zM381 1933h246v-270h-246v270zM868 1933h246v-270h-246v270z" />
    <glyph glyph-name="aring" unicode="&#xe5;" 
d="M1085 172q-237 -205 -512 -205q-196 0 -335.5 98.5t-139.5 303.5q0 139 72 231t178.5 135t294.5 68q287 33 422 82q0 135 -18.5 192.5t-94 104.5t-223.5 47q-143 0 -231 -51.5t-129 -214.5l-230 32q86 426 627 426q225 0 344 -61.5t156 -161.5t37 -301l4 -610
q0 -152 73 -287h-250q-36 74 -45 172zM1065 696q-131 -53 -385 -86q-225 -32 -278.5 -98t-53.5 -139q0 -221 283 -221q434 0 434 458v86zM443 2003q0 -37 12 -67.5t36.5 -53t55.5 -35t63 -12.5q33 0 64 12.5t53.5 35t34.5 53t12 67.5q0 33 -12 63.5t-34.5 53t-53.5 35
t-64 12.5q-32 0 -63 -12.5t-55.5 -35t-36.5 -53t-12 -63.5zM291 2003q0 65 22.5 124.5t65.5 104.5t102.5 70t128.5 25q66 0 125.5 -25t104.5 -70t69.5 -104.5t24.5 -124.5q0 -70 -24.5 -129t-69.5 -104.5t-104.5 -70t-125.5 -24.5q-69 0 -128.5 24.5t-102.5 70t-65.5 104.5
t-22.5 129z" />
    <glyph glyph-name="ae" unicode="&#xe6;" horiz-adv-x="2388" 
d="M2273 426q-65 -221 -225 -340q-164 -119 -389 -119q-324 0 -516 262q-262 -262 -578 -262q-246 0 -360 127q-115 127 -115 271q0 147 111 274q106 123 504 172q106 16 188 32.5t143 33.5v53q0 164 -69 229q-66 70 -238 70q-139 0 -237 -45q-99 -45 -136 -226l-229 29
q82 438 602 438q361 0 483 -188q172 188 447 188q311 0 467 -217q151 -217 151 -491v-82h-1007q0 -176 41 -266q45 -90 143 -148q102 -57 213 -57q283 0 361 295zM2036 831q-33 398 -377 398q-180 0 -287 -119q-102 -119 -102 -279h766zM1040 696q-217 -69 -458 -102
q-242 -37 -242 -221q0 -94 70 -156q69 -61 200 -61q156 0 267 77q110 78 135 160q28 86 28 303z" />
    <glyph glyph-name="ccedilla" unicode="&#xe7;" horiz-adv-x="1343" 
d="M1085 512l234 -33q-37 -237 -192.5 -374.5t-389.5 -137.5q-299 0 -465 192.5t-166 532.5q0 377 180.5 553t450.5 176q471 0 557 -438l-229 -37q-66 283 -315 283q-402 0 -402 -533q0 -532 385 -532q303 0 352 348zM639 29h172l-41 -140q111 -12 168 -65q58 -57 58 -127
q0 -94 -95 -172q-90 -78 -286 -78q-95 0 -189 16l17 156l123 -8q208 0 208 98q0 90 -204 90z" />
    <glyph glyph-name="egrave" unicode="&#xe8;" 
d="M1130 446l242 -28q-119 -451 -610 -451q-189 0 -334 74t-237.5 233.5t-92.5 409.5q0 213 72 379t219.5 262t360.5 96q221 0 366.5 -108.5t204.5 -266t59 -411.5h-1040q16 -217 127 -344t295 -127q266 0 368 282zM356 827h774q-16 201 -120.5 301.5t-259.5 100.5
q-164 0 -274.5 -110.5t-119.5 -291.5zM856 1565h-192l-299 364h311z" />
    <glyph glyph-name="eacute" unicode="&#xe9;" 
d="M1130 446l242 -28q-119 -451 -610 -451q-189 0 -334 74t-237.5 233.5t-92.5 409.5q0 213 72 379t219.5 262t360.5 96q221 0 366.5 -108.5t204.5 -266t59 -411.5h-1040q16 -217 127 -344t295 -127q266 0 368 282zM356 827h774q-16 201 -120.5 301.5t-259.5 100.5
q-164 0 -274.5 -110.5t-119.5 -291.5zM774 1933h307l-287 -368h-196z" />
    <glyph glyph-name="ecircumflex" unicode="&#xea;" 
d="M1130 446l242 -28q-119 -451 -610 -451q-189 0 -334 74t-237.5 233.5t-92.5 409.5q0 213 72 379t219.5 262t360.5 96q221 0 366.5 -108.5t204.5 -266t59 -411.5h-1040q16 -217 127 -344t295 -127q266 0 368 282zM356 827h774q-16 201 -120.5 301.5t-259.5 100.5
q-164 0 -274.5 -110.5t-119.5 -291.5zM602 1565h-270l282 368h254l291 -368h-262l-147 225z" />
    <glyph glyph-name="edieresis" unicode="&#xeb;" 
d="M1130 446l242 -28q-119 -451 -610 -451q-189 0 -334 74t-237.5 233.5t-92.5 409.5q0 213 72 379t219.5 262t360.5 96q221 0 366.5 -108.5t204.5 -266t59 -411.5h-1040q16 -217 127 -344t295 -127q266 0 368 282zM356 827h774q-16 201 -120.5 301.5t-259.5 100.5
q-164 0 -274.5 -110.5t-119.5 -291.5zM369 1933h246v-270h-246v270zM856 1933h246v-270h-246v270z" />
    <glyph glyph-name="igrave" unicode="&#xec;" horiz-adv-x="745" 
d="M258 1393h238v-1393h-238v1393zM557 1565h-192l-299 364h311z" />
    <glyph glyph-name="iacute" unicode="&#xed;" horiz-adv-x="745" 
d="M258 1393h238v-1393h-238v1393zM414 1933h307l-287 -368h-196z" />
    <glyph glyph-name="icircumflex" unicode="&#xee;" horiz-adv-x="745" 
d="M258 1393h238v-1393h-238v1393zM250 1565h-270l282 368h254l291 -368h-262l-147 225z" />
    <glyph glyph-name="idieresis" unicode="&#xef;" horiz-adv-x="745" 
d="M258 1393h238v-1393h-238v1393zM29 1933h246v-270h-246v270zM516 1933h246v-270h-246v270z" />
    <glyph glyph-name="eth" unicode="&#xf0;" 
d="M688 1921q49 -37 88 -69.5t76 -61.5l278 131l62 -131l-225 -111q417 -483 417 -995q0 -336 -180 -524q-180 -193 -463 -193q-176 0 -313 69.5t-235 221.5q-99 148 -99 422q0 344 172 528q168 185 422 185q139 0 279 -78q-86 172 -189 278l-356 -163l-62 131l316 147
q-119 107 -270 213h282zM1139 692q0 279 -127 398q-131 122 -283 122q-164 0 -278 -131q-115 -131 -115 -409q0 -254 115 -385q114 -127 286 -127q168 0 287 135q115 139 115 397z" />
    <glyph glyph-name="ntilde" unicode="&#xf1;" 
d="M176 0v1393h213v-197q152 225 442 225q189 0 295.5 -71.5t143.5 -182t37 -311.5v-856h-234v848q0 373 -291 373q-368 0 -368 -459v-762h-238zM307 1597q0 140 78 218q74 81 188 81q82 0 222 -69q77 -41 122 -41q87 0 99 115h168q0 -148 -74 -226q-74 -73 -180 -73
q-82 0 -217 73q-90 45 -131 45q-99 0 -99 -123h-176z" />
    <glyph glyph-name="ograve" unicode="&#xf2;" 
d="M90 696q0 389 198.5 557t452.5 168q299 0 475.5 -192.5t176.5 -511.5q0 -385 -188.5 -567.5t-463.5 -182.5q-340 0 -495.5 213t-155.5 516zM332 696q0 -245 106.5 -388.5t302.5 -143.5q205 0 307.5 153.5t102.5 387.5q0 208 -98.5 366t-311.5 158q-204 0 -306.5 -151.5
t-102.5 -381.5zM811 1565h-192l-299 364h311z" />
    <glyph glyph-name="oacute" unicode="&#xf3;" 
d="M90 696q0 389 198.5 557t452.5 168q299 0 475.5 -192.5t176.5 -511.5q0 -385 -188.5 -567.5t-463.5 -182.5q-340 0 -495.5 213t-155.5 516zM332 696q0 -245 106.5 -388.5t302.5 -143.5q205 0 307.5 153.5t102.5 387.5q0 208 -98.5 366t-311.5 158q-204 0 -306.5 -151.5
t-102.5 -381.5zM799 1933h307l-287 -368h-196z" />
    <glyph glyph-name="ocircumflex" unicode="&#xf4;" 
d="M90 696q0 389 198.5 557t452.5 168q299 0 475.5 -192.5t176.5 -511.5q0 -385 -188.5 -567.5t-463.5 -182.5q-340 0 -495.5 213t-155.5 516zM332 696q0 -245 106.5 -388.5t302.5 -143.5q205 0 307.5 153.5t102.5 387.5q0 208 -98.5 366t-311.5 158q-204 0 -306.5 -151.5
t-102.5 -381.5zM602 1565h-270l282 368h254l291 -368h-262l-147 225z" />
    <glyph glyph-name="otilde" unicode="&#xf5;" 
d="M90 696q0 389 198.5 557t452.5 168q299 0 475.5 -192.5t176.5 -511.5q0 -385 -188.5 -567.5t-463.5 -182.5q-340 0 -495.5 213t-155.5 516zM332 696q0 -245 106.5 -388.5t302.5 -143.5q205 0 307.5 153.5t102.5 387.5q0 208 -98.5 366t-311.5 158q-204 0 -306.5 -151.5
t-102.5 -381.5zM299 1597q0 140 78 218q74 81 188 81q82 0 222 -69q77 -41 122 -41q87 0 99 115h168q0 -148 -74 -226q-74 -73 -180 -73q-82 0 -217 73q-90 45 -131 45q-99 0 -99 -123h-176z" />
    <glyph glyph-name="odieresis" unicode="&#xf6;" 
d="M90 696q0 389 198.5 557t452.5 168q299 0 475.5 -192.5t176.5 -511.5q0 -385 -188.5 -567.5t-463.5 -182.5q-340 0 -495.5 213t-155.5 516zM332 696q0 -245 106.5 -388.5t302.5 -143.5q205 0 307.5 153.5t102.5 387.5q0 208 -98.5 366t-311.5 158q-204 0 -306.5 -151.5
t-102.5 -381.5zM381 1933h246v-270h-246v270zM868 1933h246v-270h-246v270z" />
    <glyph glyph-name="divide" unicode="&#xf7;" horiz-adv-x="1475" 
d="M602 1479h266v-271h-266v271zM102 840v217h1266v-217h-1266zM602 684h266v-266h-266v266z" />
    <glyph glyph-name="oslash" unicode="&#xf8;" horiz-adv-x="1638" 
d="M1339 1479l127 -95l-139 -180q152 -188 152 -512q0 -225 -74 -385t-229 -250q-152 -90 -349 -90q-217 0 -368 107l-140 -176l-122 94l143 180q-164 184 -164 504q0 405 201 577t442 172q193 0 393 -114zM1077 1135q-123 94 -250 94q-172 0 -290 -135q-119 -131 -119 -398
q0 -196 69 -331zM590 246q98 -82 229 -82q160 0 291 119q127 118 127 413q0 181 -61 316z" />
    <glyph glyph-name="ugrave" unicode="&#xf9;" 
d="M1090 0v205q-164 -238 -443 -238q-184 0 -292.5 76t-145.5 184.5t-37 300.5v865h238v-775q0 -163 12 -247t81.5 -141.5t188.5 -57.5q176 0 274.5 102.5t98.5 372.5v746h233v-1393h-208zM852 1565h-192l-299 364h311z" />
    <glyph glyph-name="uacute" unicode="&#xfa;" 
d="M1090 0v205q-164 -238 -443 -238q-184 0 -292.5 76t-145.5 184.5t-37 300.5v865h238v-775q0 -163 12 -247t81.5 -141.5t188.5 -57.5q176 0 274.5 102.5t98.5 372.5v746h233v-1393h-208zM746 1933h307l-287 -368h-196z" />
    <glyph glyph-name="ucircumflex" unicode="&#xfb;" 
d="M1090 0v205q-164 -238 -443 -238q-184 0 -292.5 76t-145.5 184.5t-37 300.5v865h238v-775q0 -163 12 -247t81.5 -141.5t188.5 -57.5q176 0 274.5 102.5t98.5 372.5v746h233v-1393h-208zM582 1565h-270l282 368h254l291 -368h-262l-147 225z" />
    <glyph glyph-name="udieresis" unicode="&#xfc;" 
d="M1090 0v205q-164 -238 -443 -238q-184 0 -292.5 76t-145.5 184.5t-37 300.5v865h238v-775q0 -163 12 -247t81.5 -141.5t188.5 -57.5q176 0 274.5 102.5t98.5 372.5v746h233v-1393h-208zM361 1933h246v-270h-246v270zM848 1933h246v-270h-246v270z" />
    <glyph glyph-name="yacute" unicode="&#xfd;" horiz-adv-x="1343" 
d="M168 -537l-29 222q78 -21 135 -21q115 0 166.5 53.5t124.5 270.5l4 8l-528 1397h258l287 -807q61 -168 102 -324q37 160 98 320l295 811h238l-528 -1418q-119 -315 -213.5 -427.5t-258.5 -112.5q-69 0 -151 28zM709 1933h307l-287 -368h-196z" />
    <glyph glyph-name="thorn" unicode="&#xfe;" 
d="M176 1921h238v-676q159 180 381 180q274 0 434 -200q155 -201 155 -520q0 -332 -172 -533q-168 -205 -434 -205q-94 0 -176 33t-188 143v-675h-238v2453zM389 688q0 -266 111 -397q110 -127 262 -127q139 0 262 119q119 127 119 426q0 290 -119 409q-115 119 -250 119
t-258 -127q-127 -127 -127 -422z" />
    <glyph glyph-name="ydieresis" unicode="&#xff;" horiz-adv-x="1343" 
d="M168 -537l-29 222q78 -21 135 -21q115 0 166.5 53.5t124.5 270.5l4 8l-528 1397h258l287 -807q61 -168 102 -324q37 160 98 320l295 811h238l-528 -1418q-119 -315 -213.5 -427.5t-258.5 -112.5q-69 0 -151 28zM324 1933h246v-270h-246v270zM811 1933h246v-270h-246v270z
" />
    <glyph glyph-name="dotlessi" unicode="&#x131;" horiz-adv-x="745" 
d="M258 1393h238v-1393h-238v1393z" />
    <glyph glyph-name="OE" unicode="&#x152;" horiz-adv-x="2683" 
d="M2597 0h-1127v279q-176 -312 -528 -312q-373 0 -573 275q-197 270 -197 721q0 430 184 708q189 283 586 283q348 0 528 -291v258h1090v-225h-852v-586h782v-229h-782v-656h889v-225zM942 1749q-201 0 -356 -180q-156 -180 -156 -627q0 -405 156 -590q151 -180 356 -180
q188 0 348 168q164 172 164 635q0 401 -151 586q-148 188 -361 188z" />
    <glyph glyph-name="oe" unicode="&#x153;" horiz-adv-x="2535" 
d="M1282 229q-197 -262 -520 -262q-180 0 -323.5 74t-237.5 229q-95 160 -95 410q0 364 181 553q180 192 479 192q344 0 516 -266q184 266 512 266q287 0 463 -196q176 -197 176 -594h-1028q0 -189 106 -332q107 -139 308 -139q270 0 360 291l238 -33q-123 -455 -602 -455
q-365 0 -533 262zM348 696q0 -270 119 -401t291 -131q168 0 286 135q123 139 123 401q0 267 -123 398q-118 131 -286 131t-287 -135q-123 -136 -123 -398zM2183 827q0 172 -106 287q-107 115 -271 115q-180 0 -286 -123q-103 -123 -103 -279h766z" />
    <glyph glyph-name="Scaron" unicode="&#x160;" horiz-adv-x="1790" 
d="M123 618l237 21q29 -229 184.5 -335.5t385.5 -106.5q237 0 356 96t119 227q0 139 -110.5 213t-475.5 156q-368 86 -497 221t-129 315q0 258 198.5 393.5t476.5 135.5q357 0 535 -164t190 -410l-245 -20q-37 369 -467 369q-443 0 -443 -287q0 -119 92.5 -182.5
t366.5 -124.5q270 -62 415.5 -117t242 -178t96.5 -299q0 -271 -209 -422.5t-504 -151.5q-406 0 -608.5 184.5t-206.5 466.5zM1036 2474h267l-291 -368h-254l-283 368h271l147 -225z" />
    <glyph glyph-name="scaron" unicode="&#x161;" horiz-adv-x="1343" 
d="M82 414l233 37q41 -287 361 -287q319 0 319 221q0 78 -57 117t-254 88q-213 53 -315.5 92t-174 127t-71.5 215q0 172 137 284.5t375 112.5q495 0 553 -389l-234 -33q-32 230 -303 230q-303 0 -303 -180q0 -70 53.5 -107t274.5 -98q246 -66 334 -100.5t157.5 -123
t69.5 -210.5q0 -201 -155.5 -322t-405.5 -121q-512 0 -594 447zM774 1933h267l-291 -368h-254l-283 368h271l147 -225z" />
    <glyph glyph-name="Ydieresis" unicode="&#x178;" horiz-adv-x="1790" 
d="M750 0v815l-742 1106h307l381 -578q99 -155 197 -327q86 155 209 340l373 565h294l-765 -1106v-815h-254zM520 2367h246v-270h-246v270zM1007 2367h246v-270h-246v270z" />
    <glyph glyph-name="Zcaron" unicode="&#x17d;" horiz-adv-x="1638" 
d="M53 0v238l1184 1458h-1073v225h1376v-225l-1196 -1471h1229v-225h-1520zM1011 2425h267l-291 -368h-254l-283 368h271l147 -225z" />
    <glyph glyph-name="zcaron" unicode="&#x17e;" horiz-adv-x="1343" 
d="M53 0v193l885 1015q-152 -8 -266 -8h-566v193h1135v-156l-897 -1044q160 12 295 12h643v-205h-1229zM802 1933h267l-291 -368h-254l-283 368h271l147 -225z" />
    <glyph glyph-name="florin" unicode="&#x192;" 
d="M106 -328q70 -12 119 -20t82 -8q78 0 111 41q33 36 57 155l230 1368h-263l33 185h262l33 172q12 73 26.5 126.5t26.5 90.5q33 69 111 119q78 57 205 57q106 0 282 -53l-45 -197q-131 29 -200 29q-70 0 -111 -37q-37 -33 -61 -172l-25 -135h266l-33 -185h-270l-250 -1429
q-33 -197 -114 -271q-78 -73 -226 -73q-127 0 -291 37z" />
    <glyph glyph-name="circumflex" unicode="&#x2c6;" horiz-adv-x="893" 
d="M303 1565h-270l282 368h254l291 -368h-262l-147 225z" />
    <glyph glyph-name="caron" unicode="&#x2c7;" horiz-adv-x="893" 
d="M614 1933h267l-291 -368h-254l-283 368h271l147 -225z" />
    <glyph glyph-name="breve" unicode="&#x2d8;" horiz-adv-x="635" 
d="M106 2134q5 -41 23 -76t47 -59.5t66 -36.5t77 -12q41 0 78 12t66 36.5t47 59.5t22 76h185q0 -37 -8.5 -82t-26.5 -88t-49 -86t-74 -76t-102.5 -51t-137.5 -18q-77 0 -136.5 18t-102.5 51t-71.5 76t-47 86t-25 88t-6.5 82h176z" />
    <glyph glyph-name="dotaccent" unicode="&#x2d9;" horiz-adv-x="635" 
d="M479 2089v-340h-319v340h319z" />
    <glyph glyph-name="ring" unicode="&#x2da;" horiz-adv-x="635" 
d="M152 2003q0 -37 12 -67.5t36.5 -53t55.5 -35t63 -12.5q33 0 64 12.5t53.5 35t34.5 53t12 67.5q0 33 -12 63.5t-34.5 53t-53.5 35t-64 12.5q-32 0 -63 -12.5t-55.5 -35t-36.5 -53t-12 -63.5zM0 2003q0 65 22.5 124.5t65.5 104.5t102.5 70t128.5 25q66 0 125.5 -25
t104.5 -70t69.5 -104.5t24.5 -124.5q0 -70 -24.5 -129t-69.5 -104.5t-104.5 -70t-125.5 -24.5q-69 0 -128.5 24.5t-102.5 70t-65.5 104.5t-22.5 129z" />
    <glyph glyph-name="ogonek" unicode="&#x2db;" horiz-adv-x="635" 
d="M655 -569q-28 -17 -67 -27t-82 -20.5t-84 -14.5t-78 -4q-78 0 -131 22.5t-86 57.5t-45 78t-12 92q0 127 88 227.5t264 157.5h192q-94 -57 -151 -106.5t-88 -88t-43.5 -73.5t-12.5 -68q0 -49 31 -82t84 -33q49 0 86 12.5t82 32.5z" />
    <glyph glyph-name="tilde" unicode="&#x2dc;" horiz-adv-x="893" 
d="M8 1597q0 140 78 218q74 81 188 81q82 0 222 -69q77 -41 122 -41q87 0 99 115h168q0 -148 -74 -226q-74 -73 -180 -73q-82 0 -217 73q-90 45 -131 45q-99 0 -99 -123h-176z" />
    <glyph glyph-name="hungarumlaut" unicode="&#x2dd;" horiz-adv-x="635" 
d="M524 2134h398l-283 -410h-270zM49 2134h397l-282 -410h-262z" />
    <glyph glyph-name="Ohm" unicode="&#x3a9;" horiz-adv-x="2204" 
d="M946 0h-848v467h49q13 -53 29.5 -88t39 -53.5t55 -24.5t81.5 -6h426v41q-114 33 -200 74t-152 90q-61 49 -112.5 118.5t-86 149.5t-53 168t-18.5 174q0 217 110 414q58 98 142 174t190.5 129t233 79.5t270.5 26.5q147 0 270 -24.5t230 -77.5q221 -111 331 -307
q58 -99 86.5 -199t28.5 -215q0 -164 -74 -340q-37 -86 -86 -151.5t-114.5 -116.5t-149.5 -92t-194 -74v-41h421q54 0 86.5 6t53 24.5t35 53.5t30.5 88h49v-467h-848l46 406q81 32 147 77t111 107q147 205 147 524q0 180 -43 317.5t-121 227.5t-188.5 135t-245.5 45
q-291 0 -430 -164q-180 -196 -180 -557q0 -209 55 -362.5t158 -243.5q32 -33 79.5 -57.5t108.5 -48.5z" />
    <glyph glyph-name="pi" unicode="&#x3c0;" horiz-adv-x="1450" 
d="M1393 1282v-205h-328l-29 -422q-4 -57 -6 -104t-2 -88q0 -98 12.5 -157.5t32.5 -84.5q49 -41 111 -41q135 0 159 168h50q-45 -377 -308 -377q-61 0 -112 16.5t-86 53.5t-55.5 92t-20.5 129q0 49 6 151.5t23 262.5l37 401h-295q-17 -258 -35.5 -440t-34.5 -305
q-41 -234 -94 -303q-25 -29 -57.5 -43.5t-77.5 -14.5q-29 0 -57.5 8.5t-49 24.5t-33 39t-12.5 55q0 58 78 160q53 74 94 149.5t70 161.5q28 78 48.5 205t33.5 303h-99q-57 0 -98 -12t-73.5 -39t-61.5 -61.5t-53 -83.5h-54q25 73 49.5 134.5t57.5 110.5q33 50 65.5 80.5
t65.5 46.5q33 17 92.5 23t149.5 6h897z" />
    <glyph glyph-name="uni0E00" unicode="&#xe00;" horiz-adv-x="410" 
 />
    <glyph glyph-name="uni0E01" unicode="&#xe01;" horiz-adv-x="1552" 
d="M1565 0h-271v1122q0 308 -397 308q-205 0 -315 -87q159 -61 258 -163q-119 -41 -197 -147.5t-78 -221.5v-811h-270v836q0 237 188 331q-131 103 -348 144q271 340 746 340q684 0 684 -545v-1106z" />
    <glyph glyph-name="uni0E02" unicode="&#xe02;" horiz-adv-x="1774" 
d="M565 0v233h148v545q0 90 90 275q57 127 57 184q0 221 -221 221q-90 0 -147 -16q61 0 128.5 -67.5t67.5 -186.5q0 -148 -98 -225.5t-209 -77.5q-324 0 -324 340q0 221 166 331.5t379 110.5q229 0 372.5 -114.5t143.5 -307.5q0 -65 -65 -229q-70 -168 -70 -246v-537h270
v1405h271v-1638h-959zM377 1069q115 0 115 115q0 114 -115 114t-115 -114q0 -115 115 -115z" />
    <glyph glyph-name="uni0E03" unicode="&#xe03;" horiz-adv-x="1806" 
d="M848 1393l-164 -115l-188 127q-54 0 -95 -33t-41 -65q144 0 213.5 -72t69.5 -182q0 -119 -75.5 -193t-198.5 -74q-119 0 -209 86t-90 254q0 185 116.5 340.5t325.5 180.5l168 -131l184 131q307 -107 307 -398q0 -73 -24 -127q-86 -176 -106.5 -231t-20.5 -121v-537h270
v1405h271v-1638h-959v233h148v545q0 90 90 266q28 58 61 160q4 107 -53 189zM369 1151q-99 0 -99 -98q0 -103 99 -103q98 0 98 103q0 98 -98 98z" />
    <glyph glyph-name="uni0E04" unicode="&#xe04;" horiz-adv-x="1847" 
d="M758 672l-221 -672h-287v1090q0 266 188.5 411.5t491.5 145.5q680 0 680 -557v-1090h-271v1081q0 349 -413 349q-185 0 -295.5 -94.5t-110.5 -254.5v-331l-16 -172l135 393q82 233 315 233q127 0 205 -80t78 -186q0 -152 -84 -236t-219 -84q-115 0 -176 54zM946 1032
q-123 0 -123 -123q0 -127 123 -127t123 127q0 123 -123 123z" />
    <glyph glyph-name="uni0E05" unicode="&#xe05;" horiz-adv-x="1872" 
d="M512 631l-16 -176l163 442q86 233 320 233q115 0 199 -73.5t84 -192.5q0 -155 -88.5 -237t-215.5 -82q-106 0 -176 53l-229 -598h-311v1147q0 188 114.5 337.5t302.5 170.5l291 -139l291 139q197 -8 307.5 -139.5t110.5 -368.5v-1147h-270v1171q0 209 -164 242l-275 -143
l-270 143q-168 -33 -168 -242v-540zM971 958q-123 0 -123 -122q0 -127 123 -127t123 127q0 122 -123 122z" />
    <glyph glyph-name="uni0E06" unicode="&#xe06;" horiz-adv-x="2068" 
d="M1036 705q111 -5 305.5 -134t251.5 -256v1323h271v-1638h-308q-98 193 -266 328t-254 135v-197q0 -291 -299 -291q-176 0 -264 98.5t-88 266.5q0 365 381 365v270q0 102 119 237q41 37 78 91q0 24 -31 57t-68 41l-164 -115l-188 127q-45 0 -90 -28.5t-45 -69.5
q143 0 212.5 -72t69.5 -182q0 -135 -83.5 -200.5t-190.5 -65.5q-102 0 -200.5 77.5t-98.5 262.5q0 184 116.5 339.5t325.5 180.5l168 -131l185 131q82 -13 223 -119t141 -172q0 -57 -102 -172q-107 -123 -107 -225v-262zM385 1159q-98 0 -98 -98q0 -103 98 -103t98 103
q0 98 -98 98zM631 360q0 -94 14 -128.5t60 -34.5q61 0 61 118v160q-127 0 -135 -115z" />
    <glyph glyph-name="uni0E07" unicode="&#xe07;" horiz-adv-x="1364" 
d="M860 0l-835 852l176 156l684 -701v737q-189 0 -291 61.5t-102 233.5q0 111 75.5 209.5t243.5 98.5q127 0 235.5 -76t108.5 -273v-1298h-295zM811 1446q-111 0 -111 -111q0 -114 111 -114t111 114q0 111 -111 111z" />
    <glyph glyph-name="uni0E08" unicode="&#xe08;" horiz-adv-x="1716" 
d="M106 860v205q0 283 213 432.5t508 149.5q344 0 506 -162t162 -395v-1090h-287l-233 635q-78 -53 -180 -53q-136 0 -217.5 75.5t-81.5 202.5q0 307 290 307q242 0 320 -233l135 -406l-16 222v331q0 160 -113 254.5t-301 94.5q-446 0 -446 -373v-197h-259zM786 745
q123 0 123 127q0 123 -123 123q-122 0 -122 -123q0 -127 122 -127z" />
    <glyph glyph-name="uni0E09" unicode="&#xe09;" horiz-adv-x="1925" 
d="M1212 279q-229 -177 -294 -279h-291v406q0 73 41 126q-82 0 -178.5 63.5t-96.5 219.5q0 135 92.5 215t219.5 80q131 0 217 -82t86 -205q0 -90 -58 -192q-53 -99 -53 -172v-189q229 230 487 348v357q0 213 -139 331.5t-377 118.5q-139 0 -239.5 -30.5t-159.5 -90
t-102 -170t-43 -212.5h-242q37 725 790 725q308 0 545.5 -152t237.5 -451v-426l-33 -49q201 -73 201 -286q0 -136 -74 -224t-229 -88q-115 0 -211.5 72t-96.5 236zM696 934q-114 0 -114 -115q0 -119 114 -119q119 0 119 119q0 115 -119 115zM1516 393q-115 0 -115 -119
q0 -118 115 -118q118 0 118 118q0 119 -118 119z" />
    <glyph glyph-name="uni0E0A" unicode="&#xe0a;" horiz-adv-x="1778" 
d="M492 1442q73 0 134.5 -78t61.5 -176q0 -152 -102.5 -227.5t-216.5 -75.5q-316 0 -316 336q0 209 164 327.5t397 118.5q267 0 467 -119l49 -28l336 356l181 -156l-312 -319l189 -160v-1241h-959v233h148v676q0 156 61 226l197 213q-131 110 -336 110q-70 0 -143 -16z
M373 1069q114 0 114 115q0 114 -114 114q-115 0 -115 -114q0 -115 115 -115zM983 897v-664h270v947l-73 53l-119 -135q-78 -86 -78 -201z" />
    <glyph glyph-name="uni0E0B" unicode="&#xe0b;" horiz-adv-x="1786" 
d="M901 1409l-184 -127l-230 152q-49 0 -92 -31t-43 -68q144 0 213.5 -71.5t69.5 -182.5q0 -118 -78 -192t-197 -74q-118 0 -208.5 88t-90.5 252q0 188 119 342t324 170l205 -147l213 151l241 -151l336 356l180 -156l-311 -319l188 -160v-1241h-958v233h147v676
q0 160 62 226l197 213zM1016 897v-664h270v947l-74 53l-118 -135q-29 -33 -74 -144q-4 -16 -4 -57zM360 1180q-98 0 -98 -99q0 -102 98 -102q99 0 99 102q0 99 -99 99z" />
    <glyph glyph-name="uni0E0C" unicode="&#xe0c;" horiz-adv-x="2564" 
d="M1286 565v557q0 308 -397 308q-205 0 -316 -87q148 -49 258 -163q-118 -41 -196 -149.5t-78 -219.5v-221q242 0 317.5 -90t75.5 -209q0 -115 -77.5 -211t-241.5 -96q-144 0 -244 81.5t-100 266.5v504q0 237 188 331q-127 99 -348 144q266 340 745 340q684 0 684 -545
v-463q299 -37 492 -266v1261h270v-1638h-270q-12 90 -127 223t-217 174q16 -49 16 -123q0 -127 -82 -213t-221 -86q-127 0 -221 70t-94 225q0 99 45 183t139 112zM631 184q110 0 110 115q0 111 -110 111q-111 0 -111 -111q0 -115 111 -115zM1409 168q111 0 111 115
q0 110 -111 110t-111 -110q0 -115 111 -115z" />
    <glyph glyph-name="uni0E0D" unicode="&#xe0d;" horiz-adv-x="2564" 
d="M1286 0v1122q0 308 -397 308q-205 0 -316 -87q148 -49 258 -163q-106 -37 -190 -137.5t-84 -231.5v-221q242 0 317.5 -90t75.5 -209q0 -115 -77.5 -211t-241.5 -96q-144 0 -244 81.5t-100 266.5v504q0 237 188 331q-127 99 -348 144q66 106 268.5 223t476.5 117
q684 0 684 -545v-873h492v1405h270v-1638h-1032zM631 184q110 0 110 115q0 111 -110 111q-111 0 -111 -111q0 -115 111 -115zM2060 -168h250q0 -233 -198.5 -397t-469.5 -164q-163 0 -280 71.5t-117 231.5q0 127 82 200.5t205 73.5q135 0 206.5 -79.5t71.5 -178.5
q0 -53 -20 -86q106 0 188 86t82 242zM1528 -311q-111 0 -111 -111q0 -110 111 -110q110 0 110 110q0 111 -110 111z" />
    <glyph glyph-name="uni0E0E" unicode="&#xe0e;" horiz-adv-x="1987" 
d="M1483 -369v1491q0 308 -398 308q-204 0 -315 -87q148 -49 258 -163q-242 -78 -242 -369v-496q0 -184 -102 -266t-242 -82q-147 0 -233 88t-86 219q0 119 75.5 209t317.5 90v263q0 262 156 331q-127 99 -348 144q49 94 258 217t487 123q684 0 684 -545v-1565l-369 -409
l-516 278q-49 -287 -348 -287q-164 0 -254 96.5t-90 239.5q0 156 94.5 242t241.5 86q102 0 172 -37l12 111h258v-25q0 -69 -28 -192l389 -213zM442 168q111 0 111 115q0 110 -111 110q-110 0 -110 -110q0 -115 110 -115zM508 -422q-119 0 -119 -123q0 -119 119 -119t119 119
q0 123 -119 123z" />
    <glyph glyph-name="uni0E0F" unicode="&#xe0f;" horiz-adv-x="2003" 
d="M1520 -377v1499q0 308 -398 308q-204 0 -315 -87q143 -45 258 -163q-242 -82 -242 -369v-496q0 -184 -100 -266t-244 -82q-143 0 -231 88t-88 219q0 119 75.5 209t317.5 90v263q0 262 156 331q-131 103 -349 144q271 340 746 340q684 0 684 -545v-1565l-369 -413
l-250 254l-233 -254l-205 237q-12 -94 -104 -161.5t-211 -67.5q-127 0 -233.5 84t-106.5 243q0 160 96 246t248 86q98 0 164 -37l12 111h258v-29q0 -86 -20 -172l-9 -45l127 -127l209 201l221 -225zM479 168q111 0 111 115q0 110 -111 110q-110 0 -110 -110q0 -115 110 -115
zM410 -414q-119 0 -119 -123q0 -118 119 -118q118 0 118 118q0 123 -118 123z" />
    <glyph glyph-name="uni0E10" unicode="&#xe10;" horiz-adv-x="1634" 
d="M750 352q-45 -45 -152 -45q-295 0 -295 311q0 123 88 203t207 80q258 0 320 -270l90 -398h90l57 496q0 102 -12.5 149.5t-65.5 90.5t-186 75.5t-326 32.5q-221 0 -401 -41q0 324 121 465t391 141q45 0 196 -12q156 -12 201 -12q107 0 133.5 20.5t26.5 114.5h266
q0 -180 -57.5 -264t-282.5 -84q-12 0 -237 12l-74 4q-168 9 -176 9q-217 0 -217 -156q106 16 221 16q348 0 551 -114.5t203 -339.5q0 -50 -9 -115l-98 -721h-492zM594 721q-115 0 -115 -119t115 -119q119 0 119 119t-119 119zM606 -1044l-221 196q-20 -82 -110.5 -151.5
t-188.5 -69.5q-115 0 -201 82t-86 233q0 156 94.5 234t204.5 78q74 0 131 -25q17 123 17 148v135h258q0 -185 -25 -316l-16 -73q65 -66 143 -168l123 118l197 -151q32 -25 82 -25q61 0 61 54v90q-307 0 -307 258q0 90 65.5 180t208.5 90q127 0 211 -90t84 -258v-234
q0 -315 -299 -315q-78 0 -131 33l-151 98zM1036 -291q-102 0 -102 -102q0 -103 102 -103q103 0 103 103q0 102 -103 102zM-25 -762q0 -115 111 -115q127 0 127 132q0 118 -111 118q-127 0 -127 -135z" />
    <glyph glyph-name="uni0E11" unicode="&#xe11;" horiz-adv-x="2228" 
d="M926 1323q0 25 -27 51.5t-51 26.5l-168 -119l-188 127q-115 0 -136 -98q144 0 213.5 -72t69.5 -182q0 -119 -76 -192.5t-198 -73.5q-123 0 -211 88t-88 251q0 193 120.5 346.5t321.5 174.5l168 -131l184 131q66 0 191 -86t174 -201q0 -12 -74 -119q-90 -123 -112.5 -166
t-22.5 -116v-271l-12 -143l495 1089h172q148 0 238 -104t90 -272v-1262h-270v1286q0 119 -78 119l-635 -1405h-271v971q0 45 16.5 106.5t164.5 245.5zM365 1155q-99 0 -99 -98q0 -103 99 -103q98 0 98 103q0 98 -98 98z" />
    <glyph glyph-name="uni0E12" unicode="&#xe12;" horiz-adv-x="2568" 
d="M1245 1413l-274 -143l-271 143q-65 -4 -116.5 -69.5t-51.5 -172.5v-880l336 319q-204 49 -204 258q0 140 92 221.5t215 81.5q114 0 208.5 -73.5t94.5 -225.5q0 -139 -127 -270l-590 -602h-295v1147q0 188 115 337.5t303 170.5l291 -139l291 139q204 -8 310.5 -143.5
t106.5 -364.5v-561q111 0 232 -67.5t178 -141.5v1261h270v-1638h-282q-17 86 -121.5 205t-194.5 139q17 -29 17 -102q0 -90 -76 -186.5t-232 -96.5q-118 0 -216.5 80t-98.5 231q0 123 63.5 213t190.5 103v585q0 209 -164 242zM967 1004q-123 0 -123 -123q0 -127 123 -127
t123 127q0 123 -123 123zM1466 156q111 0 111 114q0 111 -111 111q-110 0 -110 -111q0 -114 110 -114z" />
    <glyph glyph-name="uni0E13" unicode="&#xe13;" horiz-adv-x="2556" 
d="M2294 1638v-925l-103 -74q119 -8 191 -106.5t72 -225.5q0 -143 -96.5 -237.5t-239.5 -94.5q-127 0 -233.5 72t-115.5 219q-28 -12 -116 -126.5t-101 -139.5h-270v1122q0 308 -397 308q-205 0 -316 -87q140 -40 258 -163q-135 -45 -204.5 -158t-69.5 -211v-221
q242 0 317.5 -90t75.5 -209q0 -115 -77.5 -211t-241.5 -96q-144 0 -244 81.5t-100 266.5v504q0 237 188 331q-127 99 -348 144q65 110 270 225t475 115q684 0 684 -545v-733q238 237 471 372v893h271zM2109 442q-127 0 -127 -127q0 -131 127 -131q132 0 132 131
q0 127 -132 127zM627 184q110 0 110 115q0 111 -110 111q-111 0 -111 -111q0 -115 111 -115z" />
    <glyph glyph-name="uni0E14" unicode="&#xe14;" horiz-adv-x="1876" 
d="M848 680q-201 45 -201 266q0 131 86 215t221 84q127 0 215 -75.5t88 -219.5q0 -131 -127 -274l-589 -676h-295v1090q0 262 198.5 409.5t505.5 147.5q361 0 537 -154t176 -403v-1090h-270v1081q0 349 -439 349q-180 0 -309 -86.5t-129 -262.5v-766zM950 1077
q-123 0 -123 -123q0 -127 123 -127t123 127q0 123 -123 123z" />
    <glyph glyph-name="uni0E15" unicode="&#xe15;" horiz-adv-x="1876" 
d="M1229 1413l-275 -143l-270 143q-168 -33 -168 -242v-880l336 319q-205 45 -205 258q0 131 86 217t221 86q119 0 211 -73.5t92 -225.5q0 -139 -127 -270l-589 -602h-295v1147q0 188 116.5 337.5t301.5 170.5l290 -139l291 139q197 -8 307.5 -139.5t110.5 -368.5v-1147
h-270v1171q0 209 -164 242zM950 1004q-123 0 -123 -123q0 -127 123 -127t123 127q0 123 -123 123z" />
    <glyph glyph-name="uni0E16" unicode="&#xe16;" horiz-adv-x="1798" 
d="M483 1167q-131 103 -348 144q37 78 244 209t502 131q684 0 684 -545v-1106h-271v1122q0 308 -397 308q-205 0 -315 -87q147 -49 258 -163q-119 -41 -197 -147.5t-78 -221.5v-221q160 0 236 -31t116.5 -104.5t40.5 -163.5q0 -111 -75.5 -209t-243.5 -98
q-143 0 -243.5 81.5t-100.5 266.5v504q0 237 188 331zM639 184q111 0 111 115q0 111 -111 111t-111 -111q0 -115 111 -115z" />
    <glyph glyph-name="uni0E17" unicode="&#xe17;" horiz-adv-x="1978" 
d="M1343 1405l-565 -1405h-270v1040q-131 0 -211 22.5t-131 98.5t-51 178q0 111 77.5 209.5t241.5 98.5q131 0 237.5 -76t106.5 -273v-471l-24 -254l426 1065h204q377 0 377 -376v-1262h-270v1286q0 119 -148 119zM434 1446q-110 0 -110 -111q0 -114 110 -114q111 0 111 114
q0 111 -111 111z" />
    <glyph glyph-name="uni0E18" unicode="&#xe18;" horiz-adv-x="1712" 
d="M430 930h-225v94q0 180 90 323.5t243.5 221.5t366.5 78q525 0 701 -312l-217 -123q-144 213 -459 213q-373 0 -418 -262h586q356 0 356 -377v-786h-1155v233h131v697zM700 930v-697h484v545q0 82 -24.5 117t-115.5 35h-344z" />
    <glyph glyph-name="uni0E19" unicode="&#xe19;" horiz-adv-x="1978" 
d="M1434 836v802h270v-938l-102 -73q86 -4 155.5 -90t69.5 -242q0 -143 -96.5 -237.5t-239.5 -94.5t-243.5 82t-100.5 270q-82 -41 -217 -170t-135 -145h-279v1044q-160 0 -235.5 31t-116.5 104.5t-41 163.5q0 132 88 220t231 88q131 0 237.5 -78t106.5 -270v-984
q148 140 549 336q99 50 99 181zM442 1450q-110 0 -110 -111q0 -114 110 -114q111 0 111 114q0 111 -111 111zM1483 430q-127 0 -127 -127q0 -131 127 -131q131 0 131 131q0 127 -131 127z" />
    <glyph glyph-name="uni0E1A" unicode="&#xe1a;" horiz-adv-x="1995" 
d="M1761 1638v-1638h-1384v233h131v807q-131 0 -211 22.5t-131 98.5t-51 178q0 111 77.5 209.5t241.5 98.5q131 0 237.5 -76t106.5 -273v-1065h713v1405h270zM434 1446q-110 0 -110 -111q0 -114 110 -114q111 0 111 114q0 111 -111 111z" />
    <glyph glyph-name="uni0E1B" unicode="&#xe1b;" horiz-adv-x="1995" 
d="M1761 2556v-2556h-1384v233h131v807q-131 0 -211 22.5t-131 98.5t-51 178q0 111 77.5 209.5t241.5 98.5q131 0 237.5 -76t106.5 -273v-1065h713v2323h270zM434 1446q-110 0 -110 -111q0 -114 110 -114q111 0 111 114q0 111 -111 111z" />
    <glyph glyph-name="uni0E1C" unicode="&#xe1c;" horiz-adv-x="1802" 
d="M1294 385v1253h271v-1638h-271l-393 524l-393 -524h-270v1298q0 185 102 267t242 82q151 0 235 -90.5t84 -217.5q0 -118 -75.5 -208.5t-317.5 -90.5v-655l307 389h184zM582 1446q-111 0 -111 -111q0 -114 111 -114q110 0 110 114q0 111 -110 111z" />
    <glyph glyph-name="uni0E1D" unicode="&#xe1d;" horiz-adv-x="1798" 
d="M1294 385v2171h271v-2556h-271l-393 524l-393 -524h-270v1298q0 185 102 267t242 82q151 0 235 -90.5t84 -217.5q0 -118 -75.5 -208.5t-317.5 -90.5v-655l307 389h184zM582 1446q-111 0 -111 -111q0 -114 111 -114q110 0 110 114q0 111 -110 111z" />
    <glyph glyph-name="uni0E1E" unicode="&#xe1e;" horiz-adv-x="2130" 
d="M1606 0l-398 1221l-397 -1221h-303v1040q-131 0 -211 22.5t-131 98.5t-51 178q0 111 77.5 209.5t241.5 98.5q131 0 237.5 -76t106.5 -273v-536l-16 -148l336 1024h213l348 -1024l-21 148v876h271v-1638h-303zM434 1446q-110 0 -110 -111q0 -114 110 -114q111 0 111 114
q0 111 -111 111z" />
    <glyph glyph-name="uni0E1F" unicode="&#xe1f;" horiz-adv-x="2142" 
d="M1606 0l-398 1221l-397 -1221h-303v1040q-131 0 -211 22.5t-131 98.5t-51 178q0 111 77.5 209.5t241.5 98.5q131 0 237.5 -76t106.5 -273v-536l-16 -148l336 1024h213l348 -1024l-21 148v1794h271v-2556h-303zM434 1446q-110 0 -110 -111q0 -114 110 -114q111 0 111 114
q0 111 -111 111z" />
    <glyph glyph-name="uni0E20" unicode="&#xe20;" horiz-adv-x="1962" 
d="M672 1167q-127 99 -348 144q65 110 270 225t475 115q684 0 684 -545v-1106h-270v1122q0 308 -398 308q-204 0 -315 -87q148 -49 258 -163q-242 -78 -242 -369v-496q0 -184 -102 -266t-242 -82q-147 0 -233 88t-86 219q0 119 75.5 209t317.5 90v263q0 262 156 331z
M442 168q111 0 111 115q0 110 -111 110q-110 0 -110 -110q0 -115 110 -115z" />
    <glyph glyph-name="uni0E21" unicode="&#xe21;" horiz-adv-x="1933" 
d="M1401 0q-131 193 -299 328t-254 135v-197q0 -291 -299 -291q-352 0 -352 365q0 147 88 253.5t293 106.5v340q-238 0 -316 90.5t-78 208.5q0 131 86 219.5t234 88.5q139 0 241.5 -82t102.5 -267v-598q110 0 305 -127t285 -258v1323h270v-1638h-307zM504 1446
q-111 0 -111 -111q0 -114 111 -114q110 0 110 114q0 111 -110 111zM442 360q0 -94 14.5 -128.5t59.5 -34.5q62 0 62 118v160q-127 0 -136 -115z" />
    <glyph glyph-name="uni0E22" unicode="&#xe22;" horiz-adv-x="1761" 
d="M418 1290q-12 0 -12 -110q0 -287 344 -287h274v-197h-135q-152 0 -227.5 -71.5t-75.5 -182.5v-209h680v1405h270v-1638h-1221v377q0 229 88.5 309t124.5 80q-127 0 -245.5 108.5t-118.5 317.5q0 217 155.5 340t352.5 123q180 0 274 -92.5t94 -219.5q0 -151 -100 -229
t-219 -78q-123 0 -213 80t-90 174zM721 1450q-111 0 -111 -111q0 -114 111 -114q110 0 110 114q0 111 -110 111z" />
    <glyph glyph-name="uni0E23" unicode="&#xe23;" horiz-adv-x="1487" 
d="M1118 1126v-798q0 -185 -100 -266.5t-244 -81.5q-147 0 -233 88t-86 219q0 90 41 161.5t114.5 104.5t237.5 33v319h-733q0 160 18.5 256t96 219t217 201t356.5 78q225 0 409.5 -100.5t221.5 -317.5h-283q-86 189 -360 189q-189 0 -275 -98.5t-102 -205.5h704zM774 180
q111 0 111 115q0 111 -111 111q-110 0 -110 -111q0 -115 110 -115z" />
    <glyph glyph-name="uni0E24" unicode="&#xe24;" horiz-adv-x="1794" 
d="M483 1167q-131 103 -348 144q53 90 256 215t490 125q684 0 684 -545v-1696h-271v1712q0 308 -397 308q-205 0 -315 -87q147 -49 258 -163q-119 -41 -197 -147.5t-78 -221.5v-221q160 0 236 -31t116.5 -104.5t40.5 -163.5q0 -111 -75.5 -209t-243.5 -98
q-143 0 -243.5 81.5t-100.5 266.5v504q0 237 188 331zM639 184q111 0 111 115q0 111 -111 111t-111 -111q0 -115 111 -115z" />
    <glyph glyph-name="uni0E25" unicode="&#xe25;" horiz-adv-x="1819" 
d="M618 569q140 0 222 -75.5t82 -219.5q0 -127 -84 -215t-232 -88q-319 0 -319 353q0 278 178 565t375 373q307 -250 467 -639v352q0 450 -471 450q-480 0 -480 -507h-258q0 303 170 516t580 213q229 0 391 -72t250 -207t88 -324v-1044h-283q-32 147 -165.5 448.5
t-301.5 473.5q-28 0 -118.5 -141.5t-90.5 -211.5zM610 160q111 0 111 114q0 111 -111 111q-110 0 -110 -111q0 -114 110 -114z" />
    <glyph glyph-name="uni0E26" unicode="&#xe26;" horiz-adv-x="1974" 
d="M672 1167q-127 99 -348 144q65 106 270 223t475 117q684 0 684 -545v-1696h-270v1712q0 308 -398 308q-204 0 -315 -87q148 -49 258 -163q-242 -78 -242 -369v-496q0 -184 -102 -266t-242 -82q-147 0 -233 88t-86 219q0 119 75.5 209t317.5 90v263q0 262 156 331z
M442 168q111 0 111 115q0 110 -111 110q-110 0 -110 -110q0 -115 110 -115z" />
    <glyph glyph-name="uni0E27" unicode="&#xe27;" horiz-adv-x="1528" 
d="M1049 586v495q0 349 -349 349q-352 0 -352 -345v-147h-250v131q0 250 156 414t451 164q614 0 614 -557v-762q0 -185 -100.5 -266.5t-243.5 -81.5q-156 0 -238 92t-82 215q0 90 41 161.5t117 104.5t236 33zM975 180q110 0 110 115q0 111 -110 111q-111 0 -111 -111
q0 -115 111 -115z" />
    <glyph glyph-name="uni0E28" unicode="&#xe28;" horiz-adv-x="1835" 
d="M1307 1225q-82 -74 -156 -107q82 -53 82 -168q0 -168 -88 -250t-215 -82q-103 0 -176 54l-222 -672h-286v1090q0 253 178 405t502 152q286 0 426 -91q90 107 90 275h287q0 -311 -209 -430q86 -131 86 -311v-1090h-271v1081q0 82 -28 144zM1184 1376q-115 54 -246 54
q-176 0 -299 -84t-123 -265v-331l-16 -172l123 348q69 192 128.5 225t231.5 90q115 41 201 135zM942 1032q-123 0 -123 -123q0 -127 123 -127t123 127q0 123 -123 123z" />
    <glyph glyph-name="uni0E29" unicode="&#xe29;" horiz-adv-x="2023" 
d="M1761 680v-680h-1384v233h131v807q-131 0 -211 22.5t-131 98.5t-51 178q0 111 77.5 209.5t241.5 98.5q131 0 237.5 -76t106.5 -273v-1065h713v365q-82 -16 -193 -16q-438 0 -438 303q0 123 78 186.5t180 63.5q135 0 209 -72t74 -191q0 -53 -17 -86q66 0 107 21v831h270
v-675q8 0 55.5 47t63.5 96l156 -180q-58 -95 -158 -170.5t-117 -75.5zM434 1446q-110 0 -110 -111q0 -114 110 -114q111 0 111 114q0 111 -111 111zM1126 983q-102 0 -102 -106q0 -107 102 -107q107 0 107 107q0 106 -107 106z" />
    <glyph glyph-name="uni0E2A" unicode="&#xe2a;" horiz-adv-x="1819" 
d="M1266 1573q69 86 69 250h299q0 -82 -43 -213t-125 -197q66 -70 92.5 -186.5t26.5 -182.5v-1044h-282q-168 598 -467 922q-25 -17 -76 -82.5t-92 -153.5t-41 -117q139 0 221 -75.5t82 -219.5q0 -131 -84 -217t-232 -86q-319 0 -319 353q0 278 184.5 575t589.5 494
q-61 32 -225 32q-479 0 -479 -507h-259q0 352 199 540.5t572 188.5q274 0 389 -74zM1315 623v352q0 164 -53 258l-17 29q-82 -74 -237 -160q73 -53 173.5 -217t133.5 -262zM618 160q111 0 111 114q0 111 -111 111q-110 0 -110 -111q0 -114 110 -114z" />
    <glyph glyph-name="uni0E2B" unicode="&#xe2b;" horiz-adv-x="1978" 
d="M1466 926l-680 -926h-278v1040q-131 0 -211 22.5t-131 98.5t-51 178q0 111 77.5 209.5t241.5 98.5q131 0 237.5 -76t106.5 -273v-925l545 717q-49 4 -102.5 75.5t-53.5 173.5q0 131 84 219.5t244 88.5q119 0 213 -78t94 -254q0 -139 -143 -230q61 -28 85.5 -91.5
t24.5 -207.5v-786h-270v877zM1487 1458q-111 0 -111 -110q0 -115 111 -115q110 0 110 115q0 110 -110 110zM434 1446q-110 0 -110 -111q0 -114 110 -114q111 0 111 114q0 111 -111 111z" />
    <glyph glyph-name="uni0E2C" unicode="&#xe2c;" horiz-adv-x="2171" 
d="M1901 1434v-1434h-304l-397 926l-397 -926h-303v1040q-160 0 -236 33t-117 104.5t-41 161.5q0 131 86.5 219.5t233.5 88.5q127 0 235.5 -76t108.5 -273v-634l-16 -148l336 762h213l348 -762l-21 148v614q-340 0 -340 278q0 136 86 220t205 84q164 0 250 -119
q82 61 180 209l160 -221q-168 -234 -270 -295zM1585 1667q-110 0 -110 -111q0 -114 110 -114q111 0 111 114q0 111 -111 111zM426 1446q-111 0 -111 -111q0 -114 111 -114t111 114q0 111 -111 111z" />
    <glyph glyph-name="uni0E2D" unicode="&#xe2d;" horiz-adv-x="1847" 
d="M434 0v786q0 172 96.5 270.5t255.5 98.5q140 0 226 -84t86 -219q0 -131 -78 -215t-315 -84v-320h647v742q0 217 -135.5 333.5t-364.5 116.5q-311 0 -422 -159.5t-111 -343.5h-258q70 725 795 725q299 0 532.5 -147.5t233.5 -455.5v-1044h-1188zM782 958q-110 0 -110 -110
q0 -115 110 -115q111 0 111 115q0 110 -111 110z" />
    <glyph glyph-name="uni0E2E" unicode="&#xe2e;" horiz-adv-x="1704" 
d="M1176 1196q-218 -111 -476 -111q-229 0 -399 74t-170 213q0 295 627 295q389 0 508 -135q118 106 168 254l213 -139q-74 -189 -217 -304q4 -8 12 -28q8 -21 16 -66q8 -69 8 -139v-1110h-1220v631q0 188 106.5 278t245.5 90q147 0 229 -88t82 -215q0 -135 -79.5 -217
t-313.5 -82v-164h680v840q0 78 -20 123zM1081 1384q-127 74 -356 74q-291 0 -291 -78q0 -82 279 -82q188 0 368 86zM594 803q-111 0 -111 -111q0 -114 111 -114t111 114q0 111 -111 111z" />
    <glyph glyph-name="uni0E2F" unicode="&#xe2f;" horiz-adv-x="1700" 
d="M1212 1638h271v-1638h-271v1176q-45 -70 -208.5 -144t-356.5 -74q-192 0 -346 88.5t-154 288.5q0 152 84 232t240 80q315 0 315 -304q0 -102 -49 -155q193 0 328 133t147 317zM467 1458q-123 0 -123 -123t123 -123t123 123t-123 123z" />
    <glyph glyph-name="uni0E30" unicode="&#xe30;" horiz-adv-x="1520" 
d="M1151 1573l213 -103q0 -118 -84 -251.5t-272.5 -201t-380.5 -67.5q-508 0 -508 336q0 144 90 217.5t213 73.5q160 0 227.5 -88t67.5 -203q0 -78 -29 -123q463 0 463 410zM418 1405q-123 0 -123 -123t123 -123t123 123t-123 123zM1151 672l213 -103q0 -213 -192.5 -366.5
t-548.5 -153.5q-246 0 -375 86t-129 250q0 147 90 219t213 72q160 0 227.5 -88t67.5 -203q0 -78 -29 -127q463 0 463 414zM418 504q-123 0 -123 -123t123 -123t123 123t-123 123z" />
    <glyph glyph-name="uni0E31" unicode="&#xe31;" horiz-adv-x="0" 
d="M446 2511q-61 -225 -303 -389q-241 -160 -561 -160q-303 0 -463 94q-163 94 -163 266q0 132 86 218t229 86q131 0 209 -86t78 -205q0 -111 -62 -148q0 -12 135 -12q205 0 377 119q176 123 234 323zM-745 2449q-115 0 -115 -114q0 -115 115 -115q114 0 114 115
q0 114 -114 114z" />
    <glyph glyph-name="uni0E32" unicode="&#xe32;" horiz-adv-x="1438" 
d="M274 1135h-249q0 127 65.5 243.5t184 192.5t339.5 76q615 0 615 -557v-1090h-271v1081q0 349 -340 349q-139 0 -241.5 -72t-102.5 -223z" />
    <glyph glyph-name="uni0E33" unicode="&#xe33;" horiz-adv-x="1438" 
d="M-369 1974q-90 0 -163.5 37t-126.5 115q-50 82 -50 188q0 74 25 137.5t70 106.5t108.5 69.5t136.5 26.5q152 0 242 -94q94 -98 94 -246q0 -131 -82 -237q-86 -103 -254 -103zM-369 2462q-147 0 -147 -148q0 -151 147 -151q148 0 148 151q0 148 -148 148zM29 1135
q0 188 143 352q143 160 446 160q615 0 615 -557v-1090h-270v1081q0 349 -340 349q-156 0 -250 -78t-94 -217h-250z" />
    <glyph glyph-name="uni0E34" unicode="&#xe34;" horiz-adv-x="0" 
d="M-197 1884q-680 172 -1245 172q-135 0 -266 -8q29 188 207 380.5t506 192.5q188 0 329.5 -75.5t248 -202.5t163.5 -276.5t57 -182.5zM-1348 2241q82 4 140 4q286 0 639 -95q-181 258 -435 258q-122 0 -222.5 -47t-121.5 -120z" />
    <glyph glyph-name="uni0E35" unicode="&#xe35;" horiz-adv-x="0" 
d="M-483 2392v274h270v-782q-582 172 -1245 172q-70 0 -164 -4l-98 -4q0 152 188.5 362.5t532.5 210.5t516 -229zM-1364 2241q49 4 156 4q270 0 622 -95q-20 62 -145 160t-289 98q-135 0 -231.5 -51t-112.5 -116z" />
    <glyph glyph-name="uni0E36" unicode="&#xe36;" horiz-adv-x="0" 
d="M-655 2482q57 164 262 164q143 0 212.5 -82t69.5 -192q0 -193 -176 -238q58 -102 90 -250q-602 172 -1245 172l-262 -8q25 225 203 395t428 170q205 0 418 -131zM-393 2499q-119 0 -119 -119q0 -123 119 -123t119 123q0 119 -119 119zM-1348 2241q82 4 140 4
q237 0 499 -62l21 -4l119 -29q-13 45 -137.5 151.5t-297.5 106.5q-122 0 -222.5 -47t-121.5 -120z" />
    <glyph glyph-name="uni0E37" unicode="&#xe37;" horiz-adv-x="0" 
d="M-811 2589v77h238v-200l114 -119v319h238v-782q-680 172 -1245 172q-70 0 -164 -4l-99 -4q0 139 170 356t510 217q127 0 238 -32zM-1372 2241q29 4 139 4h37q250 0 602 -95q-160 258 -438 258q-135 0 -229.5 -53t-110.5 -114z" />
    <glyph glyph-name="uni0E38" unicode="&#xe38;" horiz-adv-x="0" 
d="M-463 -954v196q-356 0 -356 279q0 110 71.5 204.5t231.5 94.5q323 0 323 -434v-340h-270zM-520 -360q-119 0 -119 -119t119 -119q114 0 114 119t-114 119z" />
    <glyph glyph-name="uni0E39" unicode="&#xe39;" horiz-adv-x="0" 
d="M-729 -528v-209h229v524h271v-741h-770v196h4h-45q-111 0 -176.5 31t-102.5 94.5t-37 153.5q0 299 303 299q164 0 244 -104.5t80 -243.5zM-1057 -360q-119 0 -119 -119t119 -119q115 0 115 119t-115 119z" />
    <glyph glyph-name="uni0E3A" unicode="&#xe3a;" horiz-adv-x="0" 
d="M-578 -418q0 86 59.5 145.5t141.5 59.5q86 0 145.5 -59.5t59.5 -145.5q0 -82 -59.5 -139t-145.5 -57q-82 0 -141.5 57t-59.5 139z" />
    <glyph glyph-name="uni0E3F" unicode="&#xe3f;" horiz-adv-x="1790" 
d="M774 -291v291h-577v1921h577v303h209v-303q299 -16 436 -159.5t137 -331.5q0 -275 -270 -406q361 -111 361 -467q0 -537 -664 -557v-291h-209zM774 1114v582h-323v-582h323zM983 1692v-578q320 21 320 287q0 139 -74 208.5t-246 82.5zM774 225v664h-323v-664h323z
M983 885v-660q401 13 401 332q0 315 -401 328z" />
    <glyph glyph-name="uni0E40" unicode="&#xe40;" horiz-adv-x="1012" 
d="M528 1638v-1048q160 0 236 -33t117 -104.5t41 -161.5q0 -131 -86 -219t-234 -88q-131 0 -237.5 75.5t-106.5 272.5v1306h270zM602 184q111 0 111 115q0 111 -111 111q-110 0 -110 -111q0 -115 110 -115z" />
    <glyph glyph-name="uni0E41" unicode="&#xe41;" horiz-adv-x="1798" 
d="M532 1638v-1048q160 0 236 -31t117 -104.5t41 -163.5q0 -131 -86 -219t-234 -88q-143 0 -243.5 81.5t-100.5 266.5v1306h270zM606 184q111 0 111 115q0 111 -111 111q-110 0 -110 -111q0 -115 110 -115zM1319 1638v-1048q242 0 317.5 -90t75.5 -209q0 -115 -78 -211
t-241 -96q-131 0 -237.5 75.5t-106.5 272.5v1306h270zM1393 184q110 0 110 115q0 111 -110 111q-111 0 -111 -111q0 -115 111 -115z" />
    <glyph glyph-name="uni0E42" unicode="&#xe42;" horiz-adv-x="1118" 
d="M647 2023v-1433q160 0 235.5 -31t116.5 -104.5t41 -163.5q0 -131 -88 -219t-231 -88q-131 0 -237.5 75.5t-106.5 272.5v1593l-533 254q0 250 180.5 395.5t434.5 145.5q295 0 440 -160t145 -430h-241q0 201 -102.5 293t-241.5 92q-254 0 -344 -221zM721 184q110 0 110 115
q0 111 -110 111q-111 0 -111 -111q0 -115 111 -115z" />
    <glyph glyph-name="uni0E43" unicode="&#xe43;" horiz-adv-x="1303" 
d="M324 2507q106 -70 106 -246q0 -147 -80 -243.5t-207 -96.5q-135 0 -231 90t-96 258q0 447 491 447q529 0 529 -545v-1581q241 0 317 -90t76 -209q0 -135 -88 -221t-232 -86q-143 0 -243.5 81.5t-100.5 266.5v1855q0 131 -18.5 190.5t-77.5 94.5t-145 35zM4 2261
q0 -143 115 -143q127 0 127 143q0 156 -123 156q-119 0 -119 -156zM909 184q111 0 111 115q0 111 -111 111q-110 0 -110 -111q0 -115 110 -115z" />
    <glyph glyph-name="uni0E44" unicode="&#xe44;" horiz-adv-x="1225" 
d="M299 1982h-332q4 37 4 127q0 484 -127 713h258q99 -192 99 -471q0 -37 -8 -127l253 492h304v-2126q159 0 235 -33t117 -104.5t41 -161.5q0 -131 -86 -219t-234 -88q-131 0 -237.5 75.5t-106.5 272.5v2023zM823 184q111 0 111 115q0 111 -111 111q-110 0 -110 -111
q0 -115 110 -115z" />
    <glyph glyph-name="uni0E45" unicode="&#xe45;" horiz-adv-x="1430" 
d="M250 1135h-250q0 262 174 387t416 125q614 0 614 -557v-1680h-270v1671q0 349 -340 349q-156 0 -250 -78t-94 -217z" />
    <glyph glyph-name="uni0E46" unicode="&#xe46;" horiz-adv-x="2163" 
d="M860 1323q332 0 332 -287q0 -159 -90 -229t-205 -70q-156 0 -235.5 113t-79.5 268q0 189 110.5 356.5t290.5 167.5q225 0 344 -180q123 185 262 185q279 0 279 -377v-1475q0 -401 -254 -557l-189 172q172 115 172 385v1442q0 135 -49 135q-37 0 -102.5 -51t-110.5 -121
q-176 217 -315 217q-119 0 -160 -94zM901 1155q-115 0 -115 -119q0 -118 115 -118q119 0 119 118q0 119 -119 119z" />
    <glyph glyph-name="uni0E47" unicode="&#xe47;" horiz-adv-x="0" 
d="M-336 2978l246 -123q-111 -234 -467 -234q-352 0 -450.5 -10t-160 -65.5t-61.5 -190.5q0 -78 17 -143q77 115 176 188h180q0 -82 78 -159.5t151 -77.5q-53 61 -53 131q0 237 246 237q110 0 184 -67.5t74 -186.5q0 -110 -82 -212.5t-283 -102.5q-290 0 -438 213
q-98 -70 -147 -209h-123q-221 0 -221 365q0 479 499 479h103q114 -4 131 -4q377 0 401 172zM-430 2388q-102 0 -102 -102q0 -103 102 -103t102 103q0 102 -102 102z" />
    <glyph glyph-name="uni0E48" unicode="&#xe48;" horiz-adv-x="0" 
d="M-512 2765v479h270v-479h-270z" />
    <glyph glyph-name="uni0E49" unicode="&#xe49;" horiz-adv-x="0" 
d="M-586 2978q-119 0 -184.5 57t-65.5 152q0 106 68 165.5t178 59.5q123 0 184.5 -65.5t61.5 -172.5q0 -155 -127 -262q86 0 219 74t213 178.5t80 198.5l180 -90q-61 -262 -350 -403.5t-649 -141.5v139q33 0 102.5 29t89.5 82zM-594 3281q-94 0 -94 -90q0 -94 94 -94
q90 0 90 94q0 90 -90 90z" />
    <glyph glyph-name="uni0E4A" unicode="&#xe4a;" horiz-adv-x="0" 
d="M-745 3006q36 37 106 37q139 0 139 -143q0 -164 -164 -164q-94 0 -165.5 59.5t-71.5 198.5q0 160 80 223.5t153 63.5l140 -98l147 98q193 -21 193 -234q0 -86 -33 -155q102 8 182 129t80 248l139 -78q-61 -443 -606 -443q90 82 90 234q0 127 -61 160l-135 -78l-140 90
q-33 0 -59.5 -35t-26.5 -67q0 -21 13 -46zM-647 2961q-70 0 -70 -65q0 -70 70 -70q65 0 65 70q0 65 -65 65z" />
    <glyph glyph-name="uni0E4B" unicode="&#xe4b;" horiz-adv-x="0" 
d="M-778 2920v185h258v172h270v-172h258v-185h-258v-172h-270v172h-258z" />
    <glyph glyph-name="uni0E4C" unicode="&#xe4c;" horiz-adv-x="0" 
d="M-229 2888q77 -45 77 -156t-69.5 -166t-155.5 -55q-106 0 -161.5 69.5t-55.5 151.5q0 197 229 254q213 53 262.5 94t49.5 148l184 -66q-12 -135 -120.5 -204.5t-239.5 -69.5zM-373 2822q-94 0 -94 -90q0 -94 94 -94q90 0 90 94q0 90 -90 90z" />
    <glyph glyph-name="uni0E4D" unicode="&#xe4d;" horiz-adv-x="0" 
d="M-479 1868q-90 0 -166 37t-125 114.5t-49 188.5q0 102 43 178t118.5 119t178.5 43q172 0 254 -104.5t82 -235.5t-84 -235.5t-252 -104.5zM-479 2355q-148 0 -148 -147q0 -152 148 -152q147 0 147 152q0 147 -147 147z" />
    <glyph glyph-name="uni0E4E" unicode="&#xe4e;" horiz-adv-x="0" 
d="M-168 2048q-115 -94 -332 -94q-282 0 -282 205q0 98 92 196.5t309 98.5q-188 24 -188 172q0 86 131 153.5t311 67.5q127 0 197 -33l-103 -78q-49 21 -98 21q-45 0 -90 -4q-144 -41 -144 -156q0 -119 197 -119l-45 -94q-143 0 -241.5 -55.5t-98.5 -149.5q0 -115 135 -115
q103 0 160 58z" />
    <glyph glyph-name="uni0E4F" unicode="&#xe4f;" horiz-adv-x="2060" 
d="M1844 782q0 -180 -59.5 -330.5t-167.5 -258.5t-258.5 -168t-331.5 -60q-182 0 -331.5 60t-256.5 168t-166 258.5t-59 330.5q0 184 58 335t164.5 258t256.5 166t334 59q187 0 338 -58t257.5 -164.5t164 -257.5t57.5 -338zM1621 782q0 140 -39.5 256.5t-115.5 200
t-186.5 129.5t-252.5 46q-144 0 -253.5 -45t-183.5 -127.5t-112 -199t-38 -260.5q0 -142 45.5 -259t125 -201t186 -130.5t228.5 -46.5h2q126 0 235 48t188.5 132.5t125 201.5t45.5 255zM1448 782q0 -93 -30.5 -179t-86 -151.5t-133 -104.5t-171.5 -39q-93 0 -169.5 39
t-130.5 104.5t-84 151.5t-30 179q0 96 29 181.5t83 150t130.5 102.5t171.5 38h3q97 0 174.5 -37t131.5 -101t83 -150t29 -184zM1252 782q0 60 -15 111.5t-44 90t-70.5 60.5t-95.5 22q-41 0 -79 -22.5t-67.5 -61.5t-47 -90.5t-17.5 -109.5q0 -55 10.5 -108.5t35.5 -95t66 -67
t102 -25.5h6q54 1 94.5 26t67.5 66.5t40.5 94.5t13.5 109z" />
    <glyph glyph-name="uni0E50" unicode="&#xe50;" horiz-adv-x="1741" 
d="M1548 573q0 -274 -180 -431.5t-491 -157.5q-304 0 -488 159.5t-184 429.5q0 254 188.5 422t483.5 168q323 0 497 -174t174 -416zM1286 569q0 189 -123 279t-291 90q-188 0 -298.5 -100.5t-110.5 -276.5q0 -164 110.5 -258t298.5 -94q414 0 414 360z" />
    <glyph glyph-name="uni0E51" unicode="&#xe51;" horiz-adv-x="1786" 
d="M1159 -213l-147 127q168 123 245.5 284.5t77.5 305.5q0 164 -108.5 299t-345.5 135q-127 0 -217.5 -45t-149.5 -135t-59 -205q0 -127 37 -184q32 217 258 217q135 0 219 -82t84 -209q0 -160 -102.5 -233.5t-254.5 -73.5q-245 0 -374 163.5t-129 385.5q0 196 90 333.5
t243.5 211t370.5 73.5q315 0 507.5 -170t192.5 -453q0 -245 -135 -452t-303 -293zM762 418q-119 0 -119 -123q0 -115 115 -115q119 0 119 123q0 115 -115 115z" />
    <glyph glyph-name="uni0E52" unicode="&#xe52;" horiz-adv-x="1909" 
d="M1221 1036q20 45 85.5 84t127.5 39q143 0 216.5 -94t73.5 -250v-815h-1413v1348q0 237 -209 290l222 172q258 -77 258 -475v-1102h872v562q0 172 -86 172t-151 -127q-70 127 -152 127q-123 0 -123 -201q62 25 152 25q82 0 141 -61.5t59 -168.5q0 -119 -77.5 -178
t-176.5 -59q-315 0 -315 413q0 189 84 305.5t223 116.5q115 0 189 -123zM1057 655q-90 0 -90 -94t90 -94q94 0 94 94t-94 94z" />
    <glyph glyph-name="uni0E53" unicode="&#xe53;" horiz-adv-x="1835" 
d="M520 352q37 176 242 176q131 0 202.5 -73.5t71.5 -196.5q0 -274 -315 -274q-250 0 -373 165.5t-123 444.5q0 233 110.5 401t344.5 168q242 0 283 -221q57 221 311 221q151 0 235 -102.5t84 -274.5v-786h-270v795q0 168 -94 168q-148 0 -164 -267h-205q0 267 -176 267
q-102 0 -149.5 -125t-47.5 -252t33 -234zM762 365q-103 0 -103 -103q0 -106 107 -106q102 0 102 102q0 107 -106 107z" />
    <glyph glyph-name="uni0E54" unicode="&#xe54;" horiz-adv-x="1884" 
d="M1454 229h160v-229h-819q-275 0 -445 159.5t-170 430.5q0 262 186.5 409.5t505.5 147.5h258q218 0 342.5 159.5t124.5 430.5l246 -99q0 -286 -182 -499t-506 -213h-328q-159 0 -259.5 -104.5t-100.5 -268.5q0 -131 86 -227.5t209 -96.5h221q-61 13 -143 101t-82 202
q0 111 71.5 197t194.5 86q106 0 196.5 -61.5t90.5 -192.5q0 -196 -164 -242q115 -90 307 -90zM1040 664q-114 0 -114 -115t114 -115q115 0 115 115t-115 115z" />
    <glyph glyph-name="uni0E55" unicode="&#xe55;" horiz-adv-x="1884" 
d="M1081 1155q271 0 393.5 162t122.5 420l246 -99q0 -286 -182 -499t-506 -213h-328q-159 0 -259.5 -104.5t-100.5 -268.5q0 -131 84 -227.5t211 -96.5h221q-70 17 -147.5 99t-77.5 204q0 115 71.5 197t202.5 82q111 0 195 -57.5t84 -192.5q0 -90 -45 -157.5t-119 -84.5
q94 -90 307 -90h160v-229h-819q-242 0 -428.5 143.5t-186.5 442.5q0 422 418 528q-123 57 -123 209q0 127 90 217t238 90q176 0 254 -94t78 -221q0 -107 -54 -160zM807 1466q-148 0 -148 -147q0 -148 148 -148q147 0 147 148q0 147 -147 147zM1040 664q-114 0 -114 -115
t114 -115q115 0 115 115t-115 115z" />
    <glyph glyph-name="uni0E56" unicode="&#xe56;" horiz-adv-x="1901" 
d="M434 819h-229q8 33 8 230q0 512 -172 589l201 160q135 -94 178 -251.5t43 -420.5l-4 -32q94 53 303 53h323q275 0 443 -158t168 -416q0 -208 -131 -390.5t-385 -182.5h-369q-504 0 -504 377q0 123 84 209t211 86q148 0 234 -65.5t86 -180.5q0 -143 -50 -197h250
q148 0 225.5 108.5t77.5 248.5q0 155 -118.5 247.5t-282.5 92.5h-319q-193 0 -271 -107zM618 492q-126 0 -126 -127t126 -127q127 0 127 127t-127 127z" />
    <glyph glyph-name="uni0E57" unicode="&#xe57;" horiz-adv-x="2253" 
d="M1507 213q267 0 267 303v746q0 393 225 561l209 -176q-164 -103 -164 -410v-713q0 -237 -143.5 -380.5t-425.5 -143.5h-271v213q115 16 115 238v344q0 168 -98 168q-144 0 -160 -267h-205q0 267 -176 267q-98 0 -147.5 -123t-49.5 -254q0 -127 33 -234q37 176 242 176
q131 0 202.5 -75.5t71.5 -194.5q0 -139 -92 -213t-219 -74q-246 0 -373 176.5t-127 442.5q0 233 106.5 403t348.5 170q237 0 282 -221q37 221 316 221q151 0 233 -106.5t82 -270.5v-335q0 -181 -82 -238zM758 365q-103 0 -103 -103q0 -106 107 -106q102 0 102 102
q0 107 -106 107z" />
    <glyph glyph-name="uni0E58" unicode="&#xe58;" horiz-adv-x="2032" 
d="M868 217q-69 -102 -90 -233q-545 24 -545 569q0 287 174.5 440.5t493.5 153.5h258q271 0 414 135t143 504l221 -148q0 -331 -188 -521.5t-524 -190.5h-344q-197 0 -287 -108.5t-90 -264.5q0 -315 139 -315q143 278 221 327q13 -24 164.5 -182t253.5 -158q-86 90 -86 209
q0 94 71.5 190.5t219.5 96.5q160 0 244 -104.5t84 -223.5q0 -213 -139.5 -313t-336.5 -100q-110 0 -212.5 40.5t-258.5 196.5zM1503 541q-127 0 -127 -127t127 -127t127 127t-127 127z" />
    <glyph glyph-name="uni0E59" unicode="&#xe59;" horiz-adv-x="2114" 
d="M463 393q4 99 86 158t188 59q148 0 223.5 -90t75.5 -205q0 -118 -88 -218.5t-293 -100.5q-213 0 -354 141.5t-141 378.5q0 189 75.5 330t204.5 225t293 84q230 0 365 -116.5t151 -202.5q0 323 189 323q32 0 127 -29q94 -28 114 -28q115 0 115 418q0 159 -20 249l245 -131
q9 -41 9 -98q0 -283 -68 -471t-182 -188q-33 0 -123 24q-94 25 -123 25q-74 0 -74 -197q0 -188 65.5 -346t262.5 -158q49 0 90 9v-238q-258 0 -391 80t-244 330q-131 286 -180 341.5t-129 117t-182 61.5q-140 0 -228 -94.5t-88 -262.5q0 -122 29 -180zM741 442
q-114 0 -114 -114q0 -115 114 -115q115 0 115 115q0 114 -115 114z" />
    <glyph glyph-name="uni0E5A" unicode="&#xe5a;" horiz-adv-x="1995" 
d="M1126 1638h271v-1638h-271v1176q-45 -82 -213 -150t-352 -68q-205 0 -352.5 88.5t-147.5 288.5q0 152 84 232t240 80q168 0 239.5 -90.5t71.5 -217.5q0 -98 -45 -151q189 0 326 133t149 317zM381 1458q-123 0 -123 -123t123 -123t123 123t-123 123zM1597 1638h234v-1638
h-234v1638z" />
    <glyph glyph-name="uni0E5B" unicode="&#xe5b;" horiz-adv-x="3301" 
d="M2421 602q-205 -274 -250 -274t-217 274q-193 -274 -242 -274q-45 0 -205 237q-217 -565 -667 -565q-291 0 -487.5 188.5t-196.5 569.5q0 323 182 530t477 207q205 0 442 -127l-16 -180q-205 143 -430 143q-209 0 -342 -168t-133 -418q0 -241 123 -409t385 -168
q180 0 309 116.5t326 534.5q213 -307 241 -307q13 0 115 156q102 151 131 151q37 0 209 -307q205 307 250 307q8 0 139 -196q127 -197 234 -197q225 0 290 410h152q-82 -557 -434 -557q-234 0 -385 323z" />
    <glyph glyph-name="uni200B" unicode="&#x200b;" horiz-adv-x="0" 
 />
    <glyph glyph-name="endash" unicode="&#x2013;" 
d="M0 598v193h1491v-193h-1491z" />
    <glyph glyph-name="emdash" unicode="&#x2014;" horiz-adv-x="2683" 
d="M0 598v193h2683v-193h-2683z" />
    <glyph glyph-name="quoteleft" unicode="&#x2018;" horiz-adv-x="598" 
d="M422 1597v-274h-254v217q0 160 43 256t174 158l57 -90q-139 -58 -143 -267h123z" />
    <glyph glyph-name="quoteright" unicode="&#x2019;" horiz-adv-x="598" 
d="M164 1667v275h250v-218q0 -159 -41 -255.5t-172 -157.5l-58 94q144 57 144 262h-123z" />
    <glyph glyph-name="uni201A" unicode="&#x201a;" horiz-adv-x="598" 
d="M164 274h254v-217q0 -155 -41 -254q-41 -94 -176 -159l-58 94q144 57 144 262h-123v274z" />
    <glyph glyph-name="quotedblleft" unicode="&#x201c;" horiz-adv-x="893" 
d="M360 1597v-274h-249v217q0 160 41 256t172 158l61 -90q-139 -58 -147 -267h122zM770 1597v-274h-254v217q0 205 63.5 291t149.5 123l62 -90q-140 -58 -148 -267h127z" />
    <glyph glyph-name="quotedblright" unicode="&#x201d;" horiz-adv-x="893" 
d="M115 1667v275h254v-218q0 -159 -43 -255.5t-174 -157.5l-58 94q135 53 144 262h-123zM520 1667v275h254v-218q0 -159 -43 -255.5t-174 -157.5l-57 94q135 53 143 262h-123z" />
    <glyph glyph-name="uni201E" unicode="&#x201e;" horiz-adv-x="893" 
d="M115 274h250v-217q0 -159 -41 -258q-37 -94 -172 -155l-58 94q144 57 144 262h-123v274zM520 274h254v-217q0 -155 -41 -254q-41 -94 -176 -159l-57 94q143 57 143 262h-123v274z" />
    <glyph glyph-name="uni2020" unicode="&#x2020;" 
d="M618 1135h-524v208h524v533h234v-533h528v-208h-528v-1590h-234v1590z" />
    <glyph glyph-name="uni2021" unicode="&#x2021;" 
d="M623 33h-529v209h529v950h-529v213h529v491h233v-491h528v-213h-528v-950h528v-209h-528v-488h-233v488z" />
    <glyph glyph-name="bullet" unicode="&#x2022;" horiz-adv-x="938" 
d="M143 942q0 94 45 168t119 119t168 45q139 0 235.5 -98.5t96.5 -233.5q0 -94 -45 -170t-119 -121t-168 -45q-156 0 -244 106.5t-88 229.5z" />
    <glyph glyph-name="ellipsis" unicode="&#x2026;" horiz-adv-x="2683" 
d="M311 0v270h271v-270h-271zM1208 0v270h271v-270h-271zM2101 0v270h271v-270h-271z" />
    <glyph glyph-name="uni2030" unicode="&#x2030;" horiz-adv-x="2683" 
d="M1208 1954h168l-782 -2024h-172zM49 1442q0 495 377 495q143 0 258 -106q115 -107 115 -385q0 -516 -373 -516q-147 0 -262 106q-115 115 -115 406zM242 1430q0 -336 188 -336q176 0 176 340q0 344 -180 344q-184 0 -184 -348zM999 438q0 500 373 500q172 0 275 -119
q106 -119 106 -373q0 -516 -377 -516q-168 0 -270 123q-107 119 -107 385zM1196 430q0 -340 184 -340q176 0 176 340q0 344 -180 344t-180 -344zM1884 438q0 500 373 500q172 0 274 -119q107 -119 107 -373q0 -516 -377 -516t-377 508zM2077 430q0 -340 188 -340
q176 0 176 340q0 344 -180 344q-184 0 -184 -344z" />
    <glyph glyph-name="uni2039" unicode="&#x2039;" horiz-adv-x="893" 
d="M414 692l348 -598h-197l-397 606l397 590h197z" />
    <glyph glyph-name="uni203A" unicode="&#x203a;" horiz-adv-x="893" 
d="M168 1290h192l402 -590l-402 -606h-192l344 598z" />
    <glyph glyph-name="fraction" unicode="&#x2044;" horiz-adv-x="479" 
d="M692 2081h258l-1159 -2163h-254z" />
    <glyph glyph-name="uni20AC" unicode="&#x20ac;" horiz-adv-x="1376" 
d="M1372 1896l-131 -286q-139 143 -283 143q-163 0 -225 -139q-20 -41 -30.5 -112.5t-18.5 -166.5h483l-82 -225h-409v-147h381l-86 -222h-287q4 -114 12.5 -192t24.5 -119q53 -176 217 -176q152 0 369 192v-356q-111 -61 -219.5 -92t-215.5 -31q-577 0 -602 774h-196
l86 222h106l4 147h-196l86 225h119q61 705 655 705q254 0 438 -144z" />
    <glyph glyph-name="uni2122" unicode="&#x2122;" horiz-adv-x="2683" 
d="M639 1761h-344v160h872v-160h-348v-909h-180v909zM1286 1921h262l271 -852l262 852h254v-1069h-160v897l-274 -897h-164l-287 909v-909h-164v1069z" />
    <glyph glyph-name="partialdiff" unicode="&#x2202;" horiz-adv-x="1417" 
d="M1303 1004q4 81 8 144.5t4 117.5q0 123 -35 221t-96.5 165.5t-151.5 104.5t-196 37q-74 0 -135.5 -14.5t-112.5 -43t-94 -69.5t-80 -98h-66q53 110 110.5 190t123 131.5t139.5 76t160 24.5q61 -4 124.5 -20.5t121 -51.5t106.5 -90t86 -131t57.5 -178.5t16.5 -233.5
q0 -246 -53.5 -469t-159.5 -420q-246 -430 -615 -430q-110 0 -198 31t-149.5 90t-94.5 143t-33 195q0 123 37 241.5t100.5 219t145.5 178.5t168 123q77 41 159 61.5t164 20.5q58 0 109 -12.5t96 -31t86 -47t70 -57.5q20 -20 38.5 -51t39.5 -67zM1278 881q-29 77 -70 134.5
t-94 98.5t-114.5 61.5t-127.5 20.5q-122 0 -245 -90q-123 -86 -209 -303q-45 -107 -67.5 -215.5t-22.5 -218.5q0 -78 20.5 -139.5t55 -104.5t86 -65.5t108.5 -22.5q172 0 352 180q115 115 195 281t133 383z" />
    <glyph glyph-name="uni2206" unicode="&#x2206;" horiz-adv-x="1753" 
d="M1716 0h-1679l876 1942zM1384 115l-557 1351l-614 -1351h1171z" />
    <glyph glyph-name="product" unicode="&#x220f;" horiz-adv-x="2359" 
d="M1737 1876h-1114v-2216q0 -57 12 -100t38.5 -67.5t69.5 -37t105 -12.5h53v-49h-840v49h54q61 0 104 12.5t69.5 37t39 67.5t12.5 100v2060q0 115 -51 164t-174 49h-54v54h2237v-54h-49q-123 0 -174.5 -49t-51.5 -164v-2060q0 -57 12.5 -100t39 -67.5t69.5 -37t105 -12.5
h49v-49h-840v49h49q62 0 105 12.5t69.5 37t41 67.5t14.5 100v2216z" />
    <glyph glyph-name="summation" unicode="&#x2211;" horiz-adv-x="2044" 
d="M1896 -606h-1835v49l934 1249l-934 1241v54h1786l37 -471h-53q-12 98 -39 165.5t-70 110.5t-102 63.5t-137 20.5h-1037l787 -1061l-881 -1175h1143q57 0 110.5 8t106.5 28q41 13 74 35.5t59.5 57t49 88t38.5 127.5l54 -13z" />
    <glyph glyph-name="radical" unicode="&#x221a;" horiz-adv-x="1573" 
d="M1466 2617h107l-438 -2715l-693 1417l-278 -127l-45 90l418 213l569 -1155z" />
    <glyph glyph-name="infinity" unicode="&#x221e;" horiz-adv-x="2044" 
d="M913 934q99 221 209 303q58 41 135.5 63.5t176.5 22.5q221 0 381 -164q155 -160 155 -422q0 -127 -39 -231.5t-112 -190.5q-152 -168 -340 -168q-140 0 -258 107q-78 61 -213 295q-45 -86 -94.5 -147.5t-102.5 -102.5t-116.5 -59.5t-141.5 -18.5q-201 0 -340 148
q-139 139 -139 372q0 230 131 369q127 143 299 143q127 0 213 -61q90 -66 196 -258zM1049 651q53 -110 102 -182t102.5 -115t110.5 -57t123 -14q86 0 159.5 30.5t127 92t84 145.5t30.5 186q0 209 -123 340q-118 135 -270 135q-49 0 -90 -10t-78 -36.5t-69.5 -65.5t-61.5 -92
q-20 -37 -57 -125t-90 -232zM872 827q-32 78 -71 133.5t-84 92.5t-98.5 55t-118.5 18q-74 0 -137.5 -26.5t-110.5 -77.5t-73.5 -121t-26.5 -160q0 -94 24.5 -167.5t73.5 -127.5q98 -114 221 -114q135 0 238 123q32 37 73 129t90 243z" />
    <glyph glyph-name="integral" unicode="&#x222b;" horiz-adv-x="786" 
d="M303 2068q8 107 26.5 197t47.5 160q16 45 42.5 80t59.5 57.5t66 34.5t61 12q37 0 70 -12t55.5 -34.5t36.5 -49.5t14 -55q0 -33 -8 -59.5t-26.5 -45t-41 -29t-51.5 -10.5q-49 0 -106 49q-29 29 -57 29q-21 0 -39.5 -20.5t-18.5 -69.5q0 -29 4 -78t13 -127
q24 -287 38.5 -518t14.5 -408q0 -49 -6 -253.5t-19 -573.5q-12 -405 -127 -549q-73 -94 -184 -94q-78 0 -123 47t-45 125q0 29 10 53.5t26.5 41t39 24.5t51.5 8q57 0 94 -33q41 -49 74 -49q53 0 53 82q0 25 -4 68t-12 96q-8 102 -18.5 219t-14.5 252q-8 176 -12 329.5
t-4 288.5z" />
    <glyph glyph-name="approxequal" unicode="&#x2248;" horiz-adv-x="1573" 
d="M1536 1454q-4 -90 -32.5 -161.5t-74 -121t-104.5 -74t-129 -24.5q-41 0 -76 4t-63 17q-37 12 -133.5 49t-251.5 98q-107 45 -184.5 67.5t-127.5 22.5q-98 0 -165.5 -61.5t-92.5 -196.5h-61q0 90 28.5 162t73.5 119t104.5 73.5t121.5 30.5q28 0 61 -6t62 -14
q73 -21 173.5 -58t231.5 -94q74 -33 127 -53.5t94 -32.5q21 -4 43.5 -6t46.5 -2q54 0 99 16.5t79.5 49t57 82t31.5 114.5h61zM1536 766q-4 -90 -32.5 -162t-74 -121t-104.5 -75.5t-129 -26.5q-66 0 -213 45l-311 127q-107 45 -184.5 67.5t-127.5 22.5q-49 0 -90 -14.5
t-73.5 -45t-57 -79.5t-37.5 -119h-61q0 94 28.5 163.5t71.5 119t102.5 74t121.5 28.5q61 0 127 -20q65 -21 167.5 -58t237.5 -94q70 -33 125 -51.5t96 -30.5q17 -8 39.5 -10t50.5 -2q54 0 99 16.5t79.5 49t57 81.5t31.5 115h61z" />
    <glyph glyph-name="notequal" unicode="&#x2260;" horiz-adv-x="1573" 
d="M33 1143h844l294 749h115l-291 -749h545v-127h-598l-201 -520h799v-131h-848l-295 -734h-114l295 734h-545v131h594l204 520h-798v127z" />
    <glyph glyph-name="lessequal" unicode="&#x2264;" horiz-adv-x="1573" 
d="M1536 344l-1503 639v115l1503 639v-148l-1327 -549l1327 -553v-143zM33 -90h1507v-127h-1507v127z" />
    <glyph glyph-name="greaterequal" unicode="&#x2265;" horiz-adv-x="1573" 
d="M33 1737l1503 -639v-115l-1503 -639v143l1331 549l-1331 553v148zM33 -90h1507v-127h-1507v127z" />
    <glyph glyph-name="lozenge" unicode="&#x25ca;" horiz-adv-x="1417" 
d="M770 1991l582 -1000l-582 -991h-156l-548 991l548 1000h156zM692 1855l-475 -864l475 -860l504 860z" />
    <glyph glyph-name="dottedcircle" unicode="&#x25cc;" horiz-adv-x="2040" 
d="M1421 209q0 -57 -28.5 -86t-89.5 -29q-62 0 -94.5 29t-32.5 86q0 70 32.5 98.5t94.5 28.5q61 0 89.5 -28.5t28.5 -98.5zM836 217q0 -61 -33 -92t-94 -31q-62 0 -94.5 29t-32.5 86q0 70 32.5 98.5t94.5 28.5q61 0 94 -28.5t33 -90.5zM586 1466q0 -57 -33 -85.5t-94 -28.5
q-127 0 -127 114q0 70 30.5 100.5t96.5 30.5q61 0 94 -30.5t33 -100.5zM1671 1466q0 -114 -123 -114q-69 0 -100 28.5t-31 85.5q0 70 31 100.5t100 30.5q62 0 92.5 -30.5t30.5 -100.5zM1421 1634q0 -57 -28.5 -87.5t-89.5 -30.5q-70 0 -101 30.5t-31 87.5q0 70 31 98.5
t101 28.5q61 0 89.5 -28.5t28.5 -98.5zM1671 377q0 -123 -123 -123q-61 0 -94 30.5t-33 92.5q0 65 33 96t94 31q123 0 123 -127zM836 1634q0 -57 -33 -87.5t-94 -30.5q-62 0 -94.5 30.5t-32.5 87.5q0 70 32.5 98.5t94.5 28.5q61 0 94 -28.5t33 -98.5zM1905 926
q0 -62 -33 -92.5t-90 -30.5q-70 0 -100.5 30.5t-30.5 92.5q0 65 30.5 94t100.5 29q57 0 90 -29t33 -94zM418 631q0 -62 -33 -92.5t-94 -30.5q-62 0 -94.5 30.5t-32.5 92.5q0 69 32.5 98t94.5 29q61 0 94 -29t33 -98zM586 377q0 -62 -33 -92.5t-94 -30.5q-127 0 -127 123
q0 127 127 127q61 0 94 -31t33 -96zM418 1221q0 -66 -33 -96.5t-90 -30.5q-70 0 -100.5 30.5t-30.5 96.5q0 65 32.5 93.5t94.5 28.5q61 0 94 -28.5t33 -93.5zM360 926q0 -123 -127 -123q-69 0 -100 30.5t-31 92.5q0 65 31 94t100 29q66 0 96.5 -29t30.5 -94zM1130 1700
q0 -70 -30.5 -98.5t-100.5 -28.5q-57 0 -89.5 28.5t-32.5 98.5q0 61 32.5 92t89.5 31q70 0 100.5 -31t30.5 -92zM1130 160q0 -70 -30.5 -98.5t-100.5 -28.5q-57 0 -89.5 28.5t-32.5 98.5q0 61 32.5 92t89.5 31q70 0 100.5 -31t30.5 -92zM1843 1221q0 -66 -30.5 -96.5
t-100.5 -30.5q-61 0 -94 30.5t-33 96.5q0 65 31 93.5t100 28.5q62 0 94.5 -28.5t32.5 -93.5zM1843 631q0 -62 -30.5 -92.5t-100.5 -30.5q-61 0 -94 30.5t-33 92.5q0 69 33 98t94 29q70 0 100.5 -29t30.5 -98z" />
    <glyph glyph-name="uni0E10.alt1" unicode="&#xf700;" horiz-adv-x="1618" 
d="M721 352q-45 -45 -152 -45q-295 0 -295 311q0 107 82 195t217 88q254 0 316 -270l90 -398h90l57 496q0 107 -16 156t-67.5 90t-182.5 71.5t-323 30.5q-222 0 -402 -41q0 320 123 463t389 143q45 0 197 -12q155 -12 200 -12q107 0 133.5 20.5t26.5 114.5h266
q0 -180 -57 -264t-283 -84q-12 0 -237 12l-242 13q-225 0 -225 -156q106 16 221 16q348 0 551 -114.5t203 -339.5q0 -58 -8 -115l-99 -721h-491zM565 721q-114 0 -114 -119t114 -119q119 0 119 119t-119 119z" />
    <glyph glyph-name="uni0E34.alt1" unicode="&#xf701;" horiz-adv-x="0" 
d="M-655 1884q-635 172 -1246 172l-262 -8q0 135 182.5 354t526.5 219q197 0 342 -81.5t247.5 -208.5t156 -270.5t53.5 -176.5zM-1806 2241q82 4 139 4q291 0 639 -95q-8 41 -135 149.5t-299 108.5q-140 0 -236 -53t-108 -114z" />
    <glyph glyph-name="uni0E35.alt1" unicode="&#xf702;" horiz-adv-x="0" 
d="M-983 2392v274h270v-782q-667 172 -1245 172q-70 0 -164 -4l-98 -4q0 152 188.5 362.5t528.5 210.5q225 0 356 -90t164 -139zM-1864 2241q49 4 156 4q270 0 623 -95q-17 50 -142 154t-293 104q-139 0 -237 -55t-107 -112z" />
    <glyph glyph-name="uni0E36.alt1" unicode="&#xf703;" horiz-adv-x="0" 
d="M-1192 2482q0 62 80 113t182 51q152 0 217.5 -84t65.5 -190q0 -193 -176 -238q53 -98 90 -250q-598 172 -1245 172q-103 0 -263 -8q0 135 117 295t256 215t258 55q221 0 418 -131zM-930 2499q-119 0 -119 -119q0 -123 119 -123t119 123q0 119 -119 119zM-1884 2241
q82 4 139 4q299 0 639 -95q-4 33 -133 145.5t-301 112.5q-139 0 -235.5 -53t-108.5 -114z" />
    <glyph glyph-name="uni0E37.alt1" unicode="&#xf704;" horiz-adv-x="0" 
d="M-1303 2589v77h238v-200l115 -119v319h237v-782q-667 172 -1245 172q-70 0 -164 -4l-98 -4q0 139 170 356t510 217q131 0 237 -32zM-1864 2241q49 4 156 4q164 0 332 -31t291 -64q-172 258 -435 258q-139 0 -233 -51t-111 -116z" />
    <glyph glyph-name="uni0E48.alt1" unicode="&#xf705;" horiz-adv-x="0" 
d="M-987 1962v594h270v-594h-270z" />
    <glyph glyph-name="uni0E49.alt1" unicode="&#xf706;" horiz-adv-x="0" 
d="M-1257 2253q-287 0 -287 241q0 127 82 193t200 66q136 0 207.5 -78t71.5 -197q0 -176 -143 -299q270 49 429.5 213t159.5 303l209 -102q-69 -299 -399 -463t-752 -164v160q45 0 121 37t101 90zM-1270 2601q-106 0 -106 -107q0 -106 106 -106q103 0 103 106
q0 107 -103 107z" />
    <glyph glyph-name="uni0E4A.alt1" unicode="&#xf707;" horiz-adv-x="0" 
d="M-1331 2367l-180 119q-45 -8 -76 -53t-31 -86q0 -37 12 -53q54 49 140 49q184 0 184 -184q0 -209 -217 -209q-148 0 -227.5 98t-79.5 238q0 135 88 245.5t215 114.5l176 -123l188 123q127 0 188.5 -86t61.5 -213q0 -111 -41 -201q70 0 203 135.5t133 348.5l184 -99
q-41 -266 -247.5 -417.5t-534.5 -151.5q119 106 119 295q0 151 -86 213zM-1479 2236q-86 0 -86 -86t86 -86t86 86t-86 86z" />
    <glyph glyph-name="uni0E4B.alt1" unicode="&#xf708;" horiz-adv-x="0" 
d="M-1470 2265v209h303v303h270v-303h303v-209h-303v-303h-270v303h-303z" />
    <glyph glyph-name="uni0E4C.alt1" unicode="&#xf709;" horiz-adv-x="0" 
d="M-864 2433q98 -53 98 -197q0 -127 -80 -206.5t-207 -79.5q-123 0 -200.5 79.5t-77.5 202.5q0 250 348 340l139 37q115 33 160 96.5t45 161.5l233 -82q-12 -164 -145 -258t-313 -94zM-1049 2351q-118 0 -118 -119q0 -118 118 -118q115 0 115 118q0 119 -115 119z" />
    <glyph glyph-name="uni0E48.alt2" unicode="&#xf70a;" horiz-adv-x="0" 
d="M-500 1962v594h271v-594h-271z" />
    <glyph glyph-name="uni0E49.alt2" unicode="&#xf70b;" horiz-adv-x="0" 
d="M-631 2253q-131 0 -209 63.5t-78 177.5q0 127 80 193t203 66q135 0 205 -74t70 -201q0 -176 -140 -299q99 0 252.5 86t245.5 200.5t92 229.5l209 -102q-70 -299 -399.5 -463t-751.5 -164v160q49 0 121 34.5t100 92.5zM-643 2601q-107 0 -107 -107q0 -106 107 -106
q102 0 102 106q0 107 -102 107z" />
    <glyph glyph-name="uni0E4A.alt2" unicode="&#xf70c;" horiz-adv-x="0" 
d="M-778 2367l-180 119q-46 -8 -76.5 -53t-30.5 -86q0 -37 12 -53q58 49 135 49q189 0 189 -184q0 -209 -217 -209q-148 0 -227.5 98t-79.5 238q0 135 88 245.5t215 114.5l176 -123l188 123q119 0 184.5 -80t65.5 -219q0 -111 -41 -201q70 0 203 135.5t133 348.5l184 -99
q-41 -266 -247.5 -417.5t-534.5 -151.5q119 111 119 295q0 151 -90 217zM-926 2236q-86 0 -86 -86t86 -86t86 86t-86 86z" />
    <glyph glyph-name="uni0E4B.alt2" unicode="&#xf70d;" horiz-adv-x="0" 
d="M-799 2265v209h303v303h271v-303h303v-209h-303v-303h-271v303h-303z" />
    <glyph glyph-name="uni0E4C.alt2" unicode="&#xf70e;" horiz-adv-x="0" 
d="M-434 2433q37 -8 67.5 -69.5t30.5 -127.5q0 -127 -80 -206.5t-207 -79.5q-122 0 -200 84t-78 198q0 250 348 340l139 37q115 33 160 96.5t45 161.5l234 -82q-13 -159 -146 -255.5t-313 -96.5zM-618 2351q-119 0 -119 -119q0 -118 119 -118q114 0 114 118q0 119 -114 119z
" />
    <glyph glyph-name="uni0E0D.alt1" unicode="&#xf70f;" horiz-adv-x="2560" 
d="M1290 0v1122q0 308 -397 308q-205 0 -315 -87q24 0 118.5 -57t139.5 -106q-119 -41 -197 -147.5t-78 -221.5v-221q160 0 235.5 -31t116.5 -104.5t41 -163.5q0 -131 -88 -219t-231 -88t-243.5 81.5t-100.5 266.5v504q0 237 188 331q-127 99 -348 144q0 45 217 192.5
t529 147.5q684 0 684 -545v-873h491v1405h270v-1638h-1032zM635 184q110 0 110 115q0 111 -110 111q-111 0 -111 -111q0 -115 111 -115z" />
    <glyph glyph-name="uni0E31.alt1" unicode="&#xf710;" horiz-adv-x="0" 
d="M57 2519q-32 -250 -286 -405q-250 -156 -598 -156q-287 0 -439 98q-151 98 -151 266q0 144 90 226q86 82 233 82q127 0 205 -82q78 -78 78 -205q0 -94 -61 -152q24 -4 55 -6t67 -2q160 0 308 70q143 65 221 172q74 110 74 201zM-1114 2454q-115 0 -115 -115t115 -115
t115 115t-115 115z" />
    <glyph glyph-name="uni0E4D.alt1" unicode="&#xf711;" horiz-adv-x="0" 
d="M-1085 1868q-103 0 -178.5 43t-118.5 118.5t-43 178.5q0 102 43 178t118.5 119t178.5 43q151 0 243 -94.5t92 -245.5q0 -131 -84 -235.5t-251 -104.5zM-1085 2355q-148 0 -148 -147q0 -152 148 -152q147 0 147 152q0 147 -147 147z" />
    <glyph glyph-name="uni0E47.alt1" unicode="&#xf712;" horiz-adv-x="0" 
d="M-1675 2212q82 119 176 188h180q0 -82 78 -159.5t151 -77.5q-16 16 -40 61q-13 29 -13 70q0 237 246 237q111 0 184.5 -67.5t73.5 -186.5q0 -110 -84 -212.5t-281 -102.5q-290 0 -438 213q-24 0 -81.5 -80t-65.5 -129h-123q-221 0 -221 365q0 479 508 479l213 -4
q389 0 413 172l246 -123q-111 -234 -467 -238h-393q-279 0 -279 -245q0 -86 17 -160zM-893 2388q-102 0 -102 -102q0 -103 102 -103t102 103q0 102 -102 102z" />
    <glyph glyph-name="uni0E48.alt3" unicode="&#xf713;" horiz-adv-x="0" 
d="M-1004 2765v479h271v-479h-271z" />
    <glyph glyph-name="uni0E49.alt3" unicode="&#xf714;" horiz-adv-x="0" 
d="M-946 2978q-135 0 -192.5 65.5t-57.5 143.5q0 106 67.5 165.5t178.5 59.5q245 0 245 -238q0 -155 -126 -262q90 0 221 74t211 178.5t80 198.5l180 -90q-62 -258 -348.5 -401.5t-651.5 -143.5v139q37 0 104.5 31t88.5 80zM-954 3281q-95 0 -95 -90q0 -94 95 -94
q90 0 90 94q0 90 -90 90z" />
    <glyph glyph-name="uni0E4A.alt3" unicode="&#xf715;" horiz-adv-x="0" 
d="M-1143 3006q37 37 107 37q139 0 139 -143q0 -164 -164 -164q-90 0 -163.5 57.5t-73.5 200.5q0 160 86 223.5t147 63.5l139 -98l148 98q192 -21 192 -234q0 -86 -32 -155q86 0 174 116.5t88 260.5l139 -78q-62 -443 -606 -443q90 82 90 234q0 127 -62 160l-135 -78
l-139 90q-37 0 -61.5 -37t-24.5 -65q0 -9 12 -46zM-1044 2961q-70 0 -70 -65q0 -70 70 -70q65 0 65 70q0 65 -65 65z" />
    <glyph glyph-name="uni0E4B.alt3" unicode="&#xf716;" horiz-adv-x="0" 
d="M-1270 2920v185h258v172h271v-172h258v-185h-258v-172h-271v172h-258z" />
    <glyph glyph-name="uni0E4C.alt3" unicode="&#xf717;" horiz-adv-x="0" 
d="M-700 2937q16 -12 53 -66q20 -53 20 -86q0 -69 -28.5 -118.5t-79.5 -78t-117 -28.5q-90 0 -149.5 65.5t-59.5 159.5q0 193 225 250q213 53 262.5 94t49.5 148l176 -66q-8 -139 -121 -206.5t-231 -67.5zM-840 2871q-94 0 -94 -90q0 -94 94 -94q90 0 90 94q0 90 -90 90z
" />
    <glyph glyph-name="uni0E38.alt1" unicode="&#xf718;" horiz-adv-x="0" 
d="M-483 -1343q-357 0 -357 278q0 127 82 213q78 82 221 82q119 0 197 -57q78 -58 102 -131q25 -74 25 -242v-295h-270v152zM-541 -946q-118 0 -118 -119t118 -119q115 0 115 119t-115 119z" />
    <glyph glyph-name="uni0E39.alt1" unicode="&#xf719;" horiz-adv-x="0" 
d="M-500 -1274v524h271v-741h-770v197h-74q-131 0 -205 73q-78 74 -78 205q0 299 303 299q164 0 246 -106q78 -103 78 -242v-209h229zM-1057 -897q-119 0 -119 -119t119 -119q115 0 115 119t-115 119z" />
    <glyph glyph-name="uni0E4F.alt1" unicode="&#xf71a;" horiz-adv-x="0" 
d="M-614 -999q0 86 61 143q57 57 139 57q37 0 74 -12t65.5 -39t45 -63.5t16.5 -85.5q0 -82 -57 -144q-58 -57 -144 -57q-41 0 -77.5 16.5t-63.5 43t-43 63.5t-16 78z" />
    <glyph glyph-name="uni0E0E.alt1" unicode="&#xf71b;" horiz-adv-x="1987" 
d="M1483 1122q0 308 -398 308q-204 0 -315 -87q148 -49 258 -163q-61 -21 -106 -33t-76 -37t-45.5 -63.5t-14.5 -112.5v-496q0 -184 -102 -266t-242 -82q-147 0 -233 86q-86 90 -86 221q0 119 74 209q77 90 319 90v230q0 65 10.5 104t28.5 63.5t49 41t68 32.5
q-127 99 -348 144q49 94 258 217t487 123q684 0 684 -545v-1380l-369 -410l-516 278q-49 -286 -348 -286q-164 0 -254 98t-90 238q0 159 94 245q95 82 242 82q102 0 172 -37l12 111h258v-20q0 -70 -28 -197l389 -213l168 201v1306zM442 291q111 0 111 115q0 110 -111 110
q-110 0 -110 -110q0 -115 110 -115zM508 -238q-119 0 -119 -122q0 -119 119 -119t119 119q0 122 -119 122z" />
    <glyph glyph-name="uni0E0F.alt1" unicode="&#xf71c;" horiz-adv-x="2003" 
d="M1520 1122q0 308 -398 308q-204 0 -315 -87q143 -49 258 -163q-242 -82 -242 -369v-336q0 -184 -98 -266q-102 -82 -246 -82q-143 0 -233 86q-86 90 -86 221q0 119 73 209q78 90 320 90v103q0 262 156 331q-131 103 -349 144q271 340 746 340q684 0 684 -545v-1405
l-369 -414l-250 254l-233 -254l-205 238q-12 -94 -102 -164q-94 -66 -213 -66q-127 0 -234 82q-106 82 -106 246q0 160 94 246q98 86 250 86q98 0 164 -37l12 111h258v-29q0 -86 -20 -172l-9 -45l127 -127l209 201l221 -226l136 152v1339zM479 328q111 0 111 114
q0 111 -111 111q-110 0 -110 -111q0 -114 110 -114zM410 -254q-119 0 -119 -123q0 -119 119 -119q118 0 118 119q0 123 -118 123z" />
    <glyph glyph-name="uni0E2C.alt1" unicode="&#xf71d;" horiz-adv-x="2171" 
d="M1901 0h-304l-397 926l-397 -926h-303v1040q-160 0 -238 33t-115 103q-41 73 -41 163q0 131 87 222q86 86 233 86q127 0 238 -78q106 -74 106 -271v-634l-16 -148l336 762h213l348 -762l-21 148v614q-340 0 -340 278q0 136 86 222q86 82 205 82q164 0 250 -119
q86 61 180 209l160 -221q-168 -234 -270 -295v-1434zM1585 1667q-110 0 -110 -111q0 -114 110 -114q111 0 111 114q0 111 -111 111zM426 1446q-111 0 -111 -111q0 -114 111 -114t111 114q0 111 -111 111z" />
    <glyph glyph-name="apple" unicode="&#xf8ff;" horiz-adv-x="2265" 
d="M1171 1688q25 0 76 12t125 37q74 20 137.5 34.5t112.5 14.5q86 0 164 -24.5t143 -69.5q37 -29 76 -64t76 -80q-115 -98 -164 -172q-94 -135 -94 -295q0 -176 98 -319q98 -144 225 -184q-24 -86 -69 -174.5t-103 -182.5q-188 -274 -372 -274q-78 0 -201 49
q-66 16 -119 26.5t-98 10.5q-94 0 -205 -41q-61 -25 -108.5 -37t-84.5 -12q-217 0 -430 364q-102 185 -155.5 363t-53.5 358q0 168 39 299t121 238q164 209 410 209q106 0 254 -45q147 -41 200 -41zM1610 2265q0 -94 -43 -198.5t-133 -194.5q-41 -41 -82 -65.5t-74 -41.5
q-33 -4 -67.5 -10t-80.5 -10q0 106 27 198.5t82 168t145.5 131t217.5 84.5q4 -21 6 -35.5t2 -26.5z" />
    <glyph glyph-name="NULL" horiz-adv-x="0" 
 />
    <glyph glyph-name="glyph113" horiz-adv-x="1528" 
d="M1384 901h-540v-549h-160v549h-545v156h545v545h160v-545h540v-156zM1384 0h-1245v160h1245v-160z" />
    <glyph glyph-name="glyph316" 
d="M1430 74q-140 -70 -222 -88.5t-245 -18.5q-312 0 -539 184.5t-301 528.5h-172l57 156h94q0 16 -2 44.5t-2 73.5v41q0 37 4 70h-151l57 152h119q53 315 290.5 515.5t549.5 200.5q180 0 268 -22.5t195 -79.5v-221h-21q-94 73 -190.5 114t-239.5 45q-217 -4 -405.5 -135
t-262.5 -417h607l-54 -152h-581q-4 -41 -4 -66v-41q0 -40 4 -69t8 -53h491l-57 -156h-410q78 -287 268.5 -414t395.5 -135q188 8 266 45t164 115h21v-217z" />
    <glyph glyph-name="glyph343" horiz-adv-x="0" 
d="M0 0h-1229v2048h1229v-2048z" />
    <glyph glyph-name="glyph345" horiz-adv-x="901" 
d="M66 -287v164q0 70 12 92.5t90 22.5h577q82 0 94.5 -22.5t12.5 -92.5v-164q0 -119 -53 -119q-25 0 -49 99q-9 41 -35.5 84t-98 51t-149.5 8q-102 0 -163.5 -10t-88.5 -30.5t-51 -114.5q-25 -87 -53 -87q-45 0 -45 119z" />
    <glyph glyph-name="uni0E3A.alt1" horiz-adv-x="0" 
d="M-504 -827q78 0 133.5 -55.5t55.5 -133.5t-55.5 -133t-133.5 -55t-133 55t-55 133t55 133.5t133 55.5z" />
    <glyph glyph-name="uni0E33.alt1" horiz-adv-x="1438" 
d="M-1102 1933q-90 0 -163.5 39t-123.5 117q-53 78 -53 184q0 74 26.5 137.5t72 108.5t106.5 69.5t135 24.5q152 0 246 -94q90 -94 90 -246q0 -131 -82 -233q-82 -107 -254 -107zM-1102 2421q-143 0 -143 -148q0 -151 143 -151q152 0 152 151q0 148 -152 148zM29 1135
q0 188 143 352q143 160 446 160q615 0 615 -557v-1090h-270v1081q0 349 -340 349q-156 0 -250 -78t-94 -217h-250z" />
    <glyph glyph-name="uni0E4E.alt1" horiz-adv-x="0" 
d="M-655 2048q-115 -94 -332 -94q-283 0 -283 205q0 98 94 196q91 99 308 99q-189 24 -189 172q0 86 131 155q131 66 312 66q131 0 196 -33l-102 -78q-49 21 -98 21q-46 0 -91 -4q-143 -41 -143 -156q0 -119 197 -119l-45 -94q-144 0 -242 -57q-98 -54 -98 -148
q0 -115 135 -115q102 0 160 58z" />
    <glyph glyph-name="glyph354" horiz-adv-x="2048" 
d="M258 0v1901h1536v-1901h-1536zM512 258h1024v1389h-1024v-1389z" />
    </font>
</defs>
</svg>
